<svg xmlns="http://www.w3.org/2000/svg" width="52" height="52" viewBox="0 0 52 52">
    <g fill="none" fill-rule="evenodd">
        <path fill="#FFF" fill-opacity=".013" d="M0 0h52v52H0z"/>
        <rect width="50" height="42" x="1" y="5" fill="#EDF3FC" fill-rule="nonzero" stroke="#ABCBF5" stroke-width="2" rx="2"/>
        <path fill="#ABCBF5" d="M32.177 10.438a8.068 8.068 0 0 0-2.074 1.145l.32 1.306A6.857 6.857 0 0 0 29 14.67l-1.344-.022c-.33.722-.551 1.49-.657 2.276l1.15.698c-.043.764.043 1.53.254 2.265l-.966.935a8.077 8.077 0 0 0 1.145 2.074l1.306-.32c.51.57 1.113 1.05 1.782 1.422l-.022 1.344c.722.33 1.49.551 2.276.657l.698-1.15a6.861 6.861 0 0 0 2.265-.254l.935.966a8.068 8.068 0 0 0 2.074-1.145l-.32-1.306A6.867 6.867 0 0 0 41 21.33l1.344.022A8.07 8.07 0 0 0 43 19.075l-1.15-.698a6.858 6.858 0 0 0-.254-2.265l.966-.935a8.074 8.074 0 0 0-1.145-2.074l-1.306.32A6.86 6.86 0 0 0 38.33 12l.022-1.344A8.069 8.069 0 0 0 36.075 10l-.698 1.15a6.861 6.861 0 0 0-2.265.254l-.935-.966zm1.23 4.676c1.592-.88 3.6-.3 4.479 1.292a3.298 3.298 0 1 1-4.48-1.292z"/>
        <path fill="#93BDF5" d="M16 19.532a12.146 12.146 0 0 0-3.157 1.655l.438 1.975a10.33 10.33 0 0 0-2.198 2.634l-2.021-.076A12.154 12.154 0 0 0 8 29.122l1.706 1.087a10.326 10.326 0 0 0 .31 3.416l-1.484 1.376a12.144 12.144 0 0 0 1.655 3.156l1.975-.437a10.33 10.33 0 0 0 2.634 2.197l-.076 2.021A12.14 12.14 0 0 0 18.122 43l1.087-1.706a10.326 10.326 0 0 0 3.416-.31l1.376 1.484a12.156 12.156 0 0 0 3.156-1.655l-.438-1.975c.875-.75 1.617-1.64 2.197-2.634l2.022.076c.52-1.075.877-2.222 1.062-3.402l-1.707-1.087a10.326 10.326 0 0 0-.308-3.416l1.483-1.376a12.163 12.163 0 0 0-1.655-3.156l-1.975.438a10.334 10.334 0 0 0-2.634-2.198l.076-2.021A12.153 12.153 0 0 0 21.878 19l-1.087 1.706a10.325 10.325 0 0 0-3.416.31l-1.376-1.484zm1.697 7.075a4.962 4.962 0 0 1 6.696 2.09 4.963 4.963 0 0 1-2.09 6.696 4.963 4.963 0 0 1-6.696-2.09 4.963 4.963 0 0 1 2.09-6.696z"/>
    </g>
</svg>
