<svg xmlns="http://www.w3.org/2000/svg" width="52" height="52" viewBox="0 0 52 52">
    <g fill="none" fill-rule="evenodd">
        <path fill="#FFF" fill-opacity=".01" d="M0 0h52v52H0z"/>
        <path fill="#93BDF5" d="M5 6h40v4H5z"/>
        <path fill="#EDF3FC" fill-rule="nonzero" d="M46.62 46.903H3.587C1.606 46.903 0 45.314 0 43.355V13.194c0-1.96 1.606-3.549 3.586-3.549h43.035c1.98 0 3.586 1.589 3.586 3.549v30.16c0 1.96-1.606 3.549-3.586 3.549z"/>
        <path fill="#ABCBF5" fill-rule="nonzero" d="M46.62 44.242H3.587a.892.892 0 0 1-.896-.887V13.194c0-.49.4-.887.896-.887h43.035c.495 0 .896.397.896.887v30.16c0 .49-.4.888-.896.888zM4.484 42.468h41.241V14.08H4.483v28.387z"/>
        <path fill="#ABCBF5" fill-rule="nonzero" d="M50.207 33.597H39.448c-.99 0-1.793-.795-1.793-1.774v-7.097c0-.98.803-1.774 1.793-1.774h10.759c.99 0 1.793.794 1.793 1.774v7.097c0 .98-.803 1.774-1.793 1.774z"/>
        <ellipse cx="43.034" cy="28.274" fill="#F2F6FC" fill-rule="nonzero" rx="1.793" ry="1.774"/>
    </g>
</svg>
