<svg xmlns="http://www.w3.org/2000/svg" xmlns:xlink="http://www.w3.org/1999/xlink" width="211" height="182" viewBox="0 0 211 182">
    <defs>
        <linearGradient id="a" x1="58.546%" x2="50%" y1="-4.763%" y2="121.293%">
            <stop offset="0%" stop-color="#FAFAFA"/>
            <stop offset="100%" stop-color="#F2F2F2"/>
        </linearGradient>
        <path id="b" d="M11.244.566s-2.158 6.79-1.064 9.285c-2.835 4.72-10.633 3.196-9.516.82C2.92 5.873 2.06 4.108 2.06 4.108L11.244.566z"/>
        <path id="d" d="M1.598 6.158C3.517-.226 19.768-1.086 19.87 7.363c.102 8.45-2.931 20.1-10.845 20.319C.164 27.926-.153 11.98 1.598 6.158z"/>
    </defs>
    <g fill="none" fill-rule="evenodd">
        <path fill="url(#a)" d="M8.182 51.287c2.173-25.473 22.344-43.126 49.858-36.18 27.513 6.944 45.19 41.809 85.82 15.353 40.629-26.457 59.95 28.927 54.691 57.855-5.258 28.927-41.018 61.215-115.694 42.843C8.182 112.785 6.01 76.76 8.182 51.288z" transform="rotate(8 136.803 36.808)"/>
        <path fill="#ABACC0" d="M85.116 60.624c-2.84 6.055-1.55 17.84-13.576 18.778-7.163.558-5.138 9.166-5.138 9.166s11.175-.803 19.098-5.68c1.149-.707 5.16-8.705 5.681-11.732 1.076-6.26-.831-13.184-1.773-15.32-.546-1.24-2.983 1.998-4.292 4.788z"/>
        <path fill="#C2C2D4" d="M109.257 49.743s14.97 4.188 15.737 11.39c.7 6.57.117 18.938-3.126 36.492-.61 3.299-26.277 1.737-26.989-1.924-1.657-8.527-7.889-32.788-6.093-40.072 7.284-5.647 20.471-5.886 20.471-5.886z"/>
        <path fill="#FFEFEC" d="M111.469 41.127s-2.158 6.79-1.064 9.284c-2.835 4.72-10.633 3.197-9.516.82 2.255-4.796 1.395-6.561 1.395-6.561l9.185-3.543z"/>
        <g transform="translate(100.225 40.56)">
            <mask id="c" fill="#fff">
                <use xlink:href="#b"/>
            </mask>
            <path fill="#DCC8C4" d="M-15.321-6.179l4.612 4.001s2.568 3.292 8.771 7.66c9.054 6.376 13.389-4.31 13.389-4.31l-2.673-14.89-24.1 7.54z" mask="url(#c)"/>
        </g>
        <path fill="#FBCFAB" d="M79.282 181.8h62.176v-62.235H79.282z"/>
        <path fill="#D9B396" d="M50.424 181.8h29.075v-62.235H50.424z"/>
        <path fill="#DCDCDC" d="M67.777 119.529h-9.49v9.498l9.49 3.468z"/>
        <path fill="#FBCFAB" d="M162.714 181.8h47.723v-47.767h-47.723z"/>
        <path fill="#D9B396" d="M140.564 181.8h22.317v-47.767h-22.317z"/>
        <path fill="#DCDCDC" d="M154.535 134.033h-7.283v7.29l7.283-2.557z"/>
        <path fill="#FBCFAB" d="M15.981 181.8h34.433v-34.465H15.98z"/>
        <path fill="#D9B396" d="M0 181.8h16.101v-34.465H0z"/>
        <path fill="#DCDCDC" d="M9.61 147.315H4.355v5.26l5.255.616z"/>
        <path fill="#FBCFAB" d="M23.509 147.358h26.999v-28.33h-27z"/>
        <path fill="#D9B396" d="M10.978 147.358h12.625v-28.33H10.978z"/>
        <path fill="#DCDCDC" d="M18.513 119.012h-4.12v4.324l4.12.506z"/>
        <path fill="#FBCFAB" d="M67.964 119.618h22.284V98.724H67.964z"/>
        <path fill="#D9B396" d="M57.621 119.618h10.42V98.724h-10.42z"/>
        <path fill="#DCDCDC" d="M63.84 98.712h-3.4v3.189l3.4.373z"/>
        <path fill="#FBCFAB" d="M45.005 119.587h12.66v-12.302h-12.66z"/>
        <path fill="#D9B396" d="M39.129 119.587h5.92v-12.302h-5.92z"/>
        <path fill="#DCDCDC" d="M42.662 107.278H40.73v1.877l1.932.22z"/>
        <path fill="#FBCFAB" d="M106.258 119.973h34.432V85.508h-34.432z"/>
        <path fill="#D9B396" d="M90.276 119.973h16.102V85.508H90.276z"/>
        <path fill="#DCDCDC" d="M99.886 85.488h-5.255v6.565l5.255-1.994z"/>
        <path fill="#FBCFAB" d="M156.553 134.82h34.432v-34.465h-34.432z"/>
        <path fill="#D9B396" d="M140.57 134.82h16.102v-34.465h-16.101z"/>
        <path fill="#DCDCDC" d="M150.18 100.335h-5.255v5.26l5.256 1.92z"/>
        <path fill="#FFEFEC" d="M96.548 25.598c1.919-6.383 18.17-7.244 18.272 1.206.102 8.45-2.931 20.1-10.845 20.318-8.861.245-9.178-15.701-7.427-21.524z"/>
        <g transform="translate(94.95 19.44)">
            <mask id="e" fill="#fff">
                <use xlink:href="#d"/>
            </mask>
            <path fill="#DCC8C4" fill-opacity=".492" d="M-12.997 7.668l5.562 3.444s2.692 4.125 11.525 6.891c10.461 3.278 14.383-7.42 14.48-6.935L14.775-4.067-12.997 7.668z" mask="url(#e)"/>
        </g>
        <path fill="#838496" d="M76.781 68.612c-.093-.863-.868-1.563-1.73-1.563H58.596c-.862 0-1.486.7-1.394 1.563l2.587 24.082c.093.863.868 1.563 1.73 1.563h16.455c.862 0 1.487-.7 1.394-1.563L76.78 68.612z"/>
        <path fill="#D9ECFD" d="M71.904 66.556a1.111 1.111 0 0 0-1.078-.974h-8.288a.858.858 0 0 0-.868.974l.21 1.948c.057.538.54.974 1.077.974h8.288a.858.858 0 0 0 .868-.974l-.21-1.948z"/>
        <path fill="#EA7964" d="M112.25 33.732s-16.928 6.748-22.677-2.418c-2.127-3.392 7.44-5.89 7.44-5.89s1.962.215 4.646 2.305c2.482 1.931 10.59 6.003 10.59 6.003z"/>
        <path fill="#FF927E" d="M96.804 25.357c-.426 2.26 6.907 6.427 16.411 8.802 4.047-5.206 3.881-10.579-.857-14.247-3.978-3.081-13.483-5.553-15.554 5.445z"/>
        <path fill="#FFEFEC" d="M57.372 82.607s8.35-1.735 7.254 3.991c-1.097 5.726-6.502 4.128-6.502 4.128s-1.77.433-2.251-3.497c-.61-4.984 1.5-4.622 1.5-4.622z"/>
        <path fill="#838496" d="M118.292 33.396a.641.641 0 0 0-.367-.883l-5.114-1.86a.776.776 0 0 0-.953.401l-4.57 10.021a.64.64 0 0 0 .368.882l5.113 1.86a.776.776 0 0 0 .953-.401l4.57-10.02z"/>
        <path fill="#FFEFEC" d="M111.158 32.307s6.065.641 6.218 6.693c.152 6.053-.633 11.45-.622 11.45.012 0-5.314-.923-5.314-.923l2.086-6.395s.39-4.966-4.4-6.292c.84-1.82 1.073-2.584 2.032-4.533z"/>
        <path fill="#ABACC0" d="M112.638 71.077c.562.46 1.967-5.265 4.927-10.128 2.283-3.75 6.054-3.195 6.054-3.195s6.164 6.408-1.11 16.712c-5.559 7.874-11.068 10.482-11.068 10.482s-6.519-1.141-7.463-5.3c-2.79-12.286 7.73-32.396 7.73-32.396l6.494 1.053s-6.92 21.661-5.564 22.772z"/>
    </g>
</svg>
