<svg xmlns="http://www.w3.org/2000/svg" width="203" height="36" viewBox="0 0 203 36">
    <g fill="#009F35" fill-rule="nonzero">
        <path d="M23.425 2.498l-7.05 1.876L8.87 2.506V1.234L16.375 0l7.05 1.234v1.264zm0 .897v4.68l-7.05 2.355L8.87 8.523v-5.12l7.505 1.868 7.05-1.876z"/>
        <path d="M11.236 8.176s-3.106 2.403-3.447 5.618c-.25 2.358.462 4.753 3.894 8.014 2.748 2.61 1.915 5.572 1.747 6.302-.287 1.244-1.514 4.22-5.107 4.22-2.179 0-4.599-1.972-4.822-4.22-1.57-.098-4.3.79-3.243 6.148 2.794.226 2.456-1.398 2.456-1.927 1.327 1.017 2.374 3.092 7.328 3.092 4.955 0 8.884-4.916 8.884-4.916s8.22-2.996 11.032 5.485c3.718-2.601 5.128-5.485 2.86-7.031-.986 0-2.2 1.03-2.595 2.435-.582-.889-1.582-3.103-3.67-4.352-2.088-1.25-3.662-1.446-5.292-1.446.757-2.796.18-5.428.18-5.428s-1.47 1.638-3.816 1.638c-4.45 0-6.695-3.806-6.695-6.708 0-2.901 2.5-5.187 3.817-5.527-2.42-.805-3.511-1.397-3.511-1.397zM19.686 11.211s.751.287 1.236.662c.816.631.984 1.068 1.012 1.034.334-.403.968-2.251.229-4.736-1.264.38-1.763.524-1.763.524s.258.387 0 1.34c-.12.443-.261.701-.714 1.176z"/>
        <path d="M22.233 16.873a4.617 4.617 0 0 1-4.573 3.975 4.614 4.614 0 0 1-4.614-4.753c3.158 1.49 6.224 1.75 9.187.778zm-9.15-1.246a4.617 4.617 0 0 1 8.38-2l2.462.959c0 .752-.674 1.409-1.513 1.758-3 1.069-6.106.831-9.328-.717z"/>
    </g>
    <path transform="translate(39, 12)" fill="#009F35" fill-rule="evenodd" d="M8.906.078c2.535 0 4.568.801 6.027 2.12l-2.38 2.426c-.85-.98-2.083-1.506-3.647-1.506-3.32 0-5.274 2.256-5.274 5.873 0 3.617 1.953 5.873 5.274 5.873 1.564 0 2.798-.526 3.647-1.506l2.38 2.426c-1.459 1.319-3.492 2.12-6.027 2.12C3.213 17.904 0 13.977 0 8.99 0 4.005 3.213.078 8.906.078zM20.651 0v12.565c0 .944.259 1.607.754 2.028.506.418 1.253.589 2.201.574v2.653c-1.867.108-3.462-.175-4.602-.988-1.186-.841-1.88-2.232-1.88-4.267V0h3.527zm6.593.205c1.048 0 1.899.781 1.899 1.745 0 .964-.85 1.745-1.9 1.745-1.048 0-1.898-.781-1.898-1.745 0-.964.85-1.745 1.899-1.745zm1.763 5.084v12.372H25.48V5.289h3.526zm8.73-.294c1.915 0 3.441.583 4.432 1.483L40.2 8.654c-.458-.548-1.256-.84-2.214-.84-2.048 0-3.406 1.38-3.406 3.66 0 2.32 1.395 3.661 3.406 3.661.854 0 1.72-.273 2.255-.86l1.97 2.176c-1.073.942-2.666 1.502-4.472 1.502-4.308 0-6.685-2.933-6.685-6.478 0-3.504 2.337-6.48 6.685-6.48zM47.687.028v9.664L51.64 5.29h3.987l-4.539 5.112 5.18 7.26h-4.133l-3.18-4.734-1.27 1.33v3.404H44.16V.028h3.526zM76.842.34v3.004h-8.325v3.913h7.63v3.003h-7.63v4.398h8.325v3.003H64.885V.34h11.957zm9.363 4.629c2.46 0 5.146 1.43 5.146 4.755v7.937h-3.526v-7.194c0-1.915-1.22-2.652-2.579-2.652-.885 0-1.663.254-2.861 1.51v8.336h-3.526V5.289h3.108l.147 1.53c1.197-1.089 2.361-1.85 4.09-1.85zm0 0zm11.988-2.954v3.274h2.755V7.93h-2.755v4.659c0 .896.278 1.517.77 1.926.52.43 1.28.623 2.2.658v2.654c-1.831.058-3.438-.244-4.595-1.066-1.185-.828-1.9-2.177-1.9-4.172V7.93H92.76V5.29h1.906V2.014h3.526zm12.01 2.96h.13l-.003 2.846h-.653c-.873 0-1.987.322-2.948 1.706v8.134h-3.526V5.289h3.108l.17 1.759c.94-1.202 2.155-2.046 3.723-2.073zm7.578.013c4.16 0 6.324 2.558 6.324 6.174 0 .43-.037.926-.12 1.391h-9.314c.309 1.682 1.49 2.646 3.163 2.718 1.248.085 2.674-.305 3.846-1.019l1.493 1.752c-1.23 1.208-3.036 1.936-5.337 1.936-4.328 0-6.658-2.92-6.658-6.479 0-3.52 2.275-6.473 6.603-6.473zm.097 2.661c-1.984 0-3.026 1.218-3.177 2.762l-.009.138h6.175a3.499 3.499 0 0 0-.036-.729c-.183-1.519-1.254-2.17-2.953-2.17zm13.65-2.96c1.159 0 2.205.195 3.065.6h3.874v2.063l-2.028.2c.434.454.698 1.09.698 1.878 0 3.386-2.264 4.74-5.608 4.74a6.06 6.06 0 0 1-1.69-.22c-.568.342-.784.802-.688 1.2.087.367.43.645 1.028.728h1.67c2.754-.023 6.664.296 6.664 4.054 0 3.355-3.626 4.092-6.665 4.067-3.039.025-6.665-.712-6.665-4.067 0-1.664.783-2.622 1.898-3.186-.55-.261-.916-.686-1.025-1.147-.203-.85.234-1.857 1.298-2.626-.906-.757-1.433-1.915-1.433-3.543 0-3.21 2.373-4.741 5.608-4.741zm0 2.708c-1.528 0-2.394.592-2.394 2.033 0 1.465.82 2.033 2.395 2.033 1.571 0 2.394-.598 2.394-2.033 0-1.441-.866-2.033-2.394-2.033zm.285 11.084c-2.183-.026-3.138.2-3.138 1.45 0 1.118 1.162 1.464 3.14 1.458 1.979.006 3.14-.34 3.14-1.458 0-1.25-.955-1.476-3.142-1.45zM145.53 4.996c3.046 0 5.838 1.46 5.838 4.754v7.91h-3.108l-.15-1.526c-.976 1.152-2.313 1.76-3.755 1.842-2.481.166-5.02-1.356-5.02-4.209 0-2.85 2.488-4.127 5.056-4.206 1.216-.032 2.462.21 3.451.677l-.002-.564c-.045-1.552-1.5-2.208-3.066-2.18-1.367.029-2.899.51-3.84 1.027l-.828-2.125c1.583-.865 3.56-1.4 5.424-1.4zm-.305 6.74c-1.377.007-2.6.548-2.6 1.816 0 1.252 1.252 1.866 2.607 1.794.972-.045 1.902-.383 2.619-1.226V12.4c-.695-.426-1.674-.667-2.626-.663zm13.669-6.717c1.688-.007 3.421.4 4.67 1.186l-.963 2.267c-.949-.465-2.502-.837-3.707-.85-1.173-.008-2.146.365-2.146 1.2 0 .805.725.992 1.607 1.153 3.113.538 5.645.777 5.645 4.046 0 2.65-2.876 3.822-5.67 3.78-2.02 0-4.19-.61-5.422-1.683l.982-2.252c.808.63 2.651 1.336 4.437 1.348 1.287.008 2.225-.354 2.225-1.31 0-1.034-1.012-1.13-2.15-1.339-3.097-.517-5.132-.931-5.132-3.723 0-2.598 2.747-3.812 5.624-3.823z"/>
</svg>
