<svg xmlns="http://www.w3.org/2000/svg" width="32" height="32" viewBox="0 0 32 32">
    <path fill="#333C4E" fill-rule="nonzero" d="M15.99 12.81a3.184 3.184 0 0 0-3.18 3.18 3.185 3.185 0 0 0 3.18 3.181 3.185 3.185 0 0 0 3.18-3.18 3.184 3.184 0 0 0-3.18-3.18zm0 0a3.184 3.184 0 0 0-3.18 3.18 3.185 3.185 0 0 0 3.18 3.181 3.185 3.185 0 0 0 3.18-3.18 3.184 3.184 0 0 0-3.18-3.18zm5.298-5.185H10.693a3.071 3.071 0 0 0-3.068 3.068v10.595a3.071 3.071 0 0 0 3.068 3.068h10.595a3.071 3.071 0 0 0 3.068-3.068V10.693a3.071 3.071 0 0 0-3.068-3.068zM15.99 21.498a5.514 5.514 0 0 1-5.507-5.508 5.514 5.514 0 0 1 5.507-5.507 5.514 5.514 0 0 1 5.508 5.507 5.514 5.514 0 0 1-5.508 5.508zm5.685-9.876a1.305 1.305 0 0 1-1.303-1.303c0-.719.584-1.304 1.303-1.304s1.303.585 1.303 1.304c0 .718-.584 1.303-1.303 1.303zM15.99 12.81a3.184 3.184 0 0 0-3.18 3.18 3.185 3.185 0 0 0 3.18 3.18 3.185 3.185 0 0 0 3.18-3.18 3.184 3.184 0 0 0-3.18-3.18zm5.298-5.186H10.693a3.071 3.071 0 0 0-3.068 3.068v10.595a3.071 3.071 0 0 0 3.068 3.068h10.595a3.071 3.071 0 0 0 3.068-3.068V10.693a3.071 3.071 0 0 0-3.068-3.068zM15.99 21.498a5.514 5.514 0 0 1-5.507-5.508 5.514 5.514 0 0 1 5.507-5.507 5.514 5.514 0 0 1 5.508 5.507 5.514 5.514 0 0 1-5.508 5.508zm5.685-9.876a1.305 1.305 0 0 1-1.303-1.303c0-.719.584-1.304 1.303-1.304s1.303.585 1.303 1.304c0 .718-.584 1.303-1.303 1.303zM15.99 12.81a3.184 3.184 0 0 0-3.18 3.18 3.185 3.185 0 0 0 3.18 3.18 3.185 3.185 0 0 0 3.18-3.18 3.184 3.184 0 0 0-3.18-3.18zM0 2v27.981a2 2 0 0 0 2 2h27.981a2 2 0 0 0 2-2V2a2 2 0 0 0-2-2H2a2 2 0 0 0-2 2zm26.683 19.288a5.4 5.4 0 0 1-5.395 5.395H10.693a5.4 5.4 0 0 1-5.395-5.395V10.693a5.4 5.4 0 0 1 5.395-5.395h10.595a5.4 5.4 0 0 1 5.395 5.395v10.595zM21.288 7.625H10.693a3.071 3.071 0 0 0-3.068 3.068v10.595a3.071 3.071 0 0 0 3.068 3.068h10.595a3.071 3.071 0 0 0 3.068-3.068V10.693a3.071 3.071 0 0 0-3.068-3.068zM15.99 21.498a5.514 5.514 0 0 1-5.507-5.508 5.514 5.514 0 0 1 5.507-5.507 5.514 5.514 0 0 1 5.508 5.507 5.514 5.514 0 0 1-5.508 5.508zm5.685-9.876a1.305 1.305 0 0 1-1.303-1.303c0-.719.584-1.304 1.303-1.304s1.303.585 1.303 1.304c0 .718-.584 1.303-1.303 1.303zM15.99 12.81a3.184 3.184 0 0 0-3.18 3.18 3.185 3.185 0 0 0 3.18 3.18 3.185 3.185 0 0 0 3.18-3.18 3.184 3.184 0 0 0-3.18-3.18zm0 0a3.184 3.184 0 0 0-3.18 3.18 3.185 3.185 0 0 0 3.18 3.18 3.185 3.185 0 0 0 3.18-3.18 3.184 3.184 0 0 0-3.18-3.18zm0 0a3.184 3.184 0 0 0-3.18 3.18 3.185 3.185 0 0 0 3.18 3.18 3.185 3.185 0 0 0 3.18-3.18 3.184 3.184 0 0 0-3.18-3.18zm5.298-5.186H10.693a3.071 3.071 0 0 0-3.068 3.068v10.595a3.071 3.071 0 0 0 3.068 3.068h10.595a3.071 3.071 0 0 0 3.068-3.068V10.693a3.071 3.071 0 0 0-3.068-3.068zM15.99 21.498a5.514 5.514 0 0 1-5.507-5.508 5.514 5.514 0 0 1 5.507-5.507 5.514 5.514 0 0 1 5.508 5.507 5.514 5.514 0 0 1-5.508 5.508zm5.685-9.876a1.305 1.305 0 0 1-1.303-1.303c0-.719.584-1.304 1.303-1.304s1.303.585 1.303 1.304c0 .718-.584 1.303-1.303 1.303zM15.99 12.81a3.184 3.184 0 0 0-3.18 3.18 3.185 3.185 0 0 0 3.18 3.18 3.185 3.185 0 0 0 3.18-3.18 3.184 3.184 0 0 0-3.18-3.18zm0 0a3.184 3.184 0 0 0-3.18 3.18 3.185 3.185 0 0 0 3.18 3.18 3.185 3.185 0 0 0 3.18-3.18 3.184 3.184 0 0 0-3.18-3.18zm0 0a3.184 3.184 0 0 0-3.18 3.18 3.185 3.185 0 0 0 3.18 3.18 3.185 3.185 0 0 0 3.18-3.18 3.184 3.184 0 0 0-3.18-3.18zm5.298-5.186H10.693a3.071 3.071 0 0 0-3.068 3.068v10.595a3.071 3.071 0 0 0 3.068 3.068h10.595a3.071 3.071 0 0 0 3.068-3.068V10.693a3.071 3.071 0 0 0-3.068-3.068zM15.99 21.498a5.514 5.514 0 0 1-5.507-5.508 5.514 5.514 0 0 1 5.507-5.507 5.514 5.514 0 0 1 5.508 5.507 5.514 5.514 0 0 1-5.508 5.508zm5.685-9.876a1.305 1.305 0 0 1-1.303-1.303c0-.719.584-1.304 1.303-1.304s1.303.585 1.303 1.304c0 .718-.584 1.303-1.303 1.303zM15.99 12.81a3.184 3.184 0 0 0-3.18 3.18 3.185 3.185 0 0 0 3.18 3.18 3.185 3.185 0 0 0 3.18-3.18 3.184 3.184 0 0 0-3.18-3.18z"/>
</svg>
