<svg xmlns="http://www.w3.org/2000/svg" xmlns:xlink="http://www.w3.org/1999/xlink" width="128" height="96" viewBox="0 0 128 96">
    <defs>
        <path id="a" d="M.342 14.8c-.826-1.299 6.815-2.571 13.348-6.54 9.384-5.7 9.75-8.642 10.952-8.202 2.222.813 15.23 13.389 17.454 16.114 4.026 4.935-6.982 10.408-10.267 12.343-3.463 2.04-15.829 10.593-20.535 4.457C8.987 29.964 1.891 17.238.342 14.801z"/>
        <path id="c" d="M13.074 14.8H1.027s-1.23-.174-.685-1.028c.545-.854 4.71-5.715 11.979-9.6C18.885.663 22.93.401 22.93.401s5.865-.609 10.267 0c2.822.39 2.724.995 1.369 1.371-1.355.376-7.874 3.637-10.952 5.486-4.61 2.768-8.752 7.333-10.541 7.543z"/>
    </defs>
    <g fill="none" fill-rule="evenodd">
        <path fill="#FFE98A" d="M95.829 32.7V31.67l2.053-1.371s.98-.231 1.027.685c.048.916-.684 1.715-.684 1.715l-1.027 1.028-1.37-1.028z"/>
        <path fill="#CCAE2B" d="M95.829 32.7V31.67s.904.896 1.369.686c.487-.22 1.352-.832 1.711-1.372.048.916-.1 1.327-.342 1.715-.285.457-1.37 1.028-1.37 1.028l-.622.256-.732-.674-.014-.61z"/>
        <path fill="#E4E3D4" d="M44.67 24.817c-5.61-3.244-14.107-3.597-18.964-.787L3.326 36.974c-4.858 2.81-4.248 7.725 1.36 10.969L83.07 93.278c5.609 3.244 14.107 3.597 18.964.787l22.38-12.944c4.858-2.81 4.248-7.724-1.36-10.968L44.67 24.817z"/>
        <path fill="#2D3739" d="M70.47 77.559l-1.679.74s-1.903-5.26.113-7.78c2.016-2.521 5.145-1.084 6.656 0 1.511 1.083-5.09 7.04-5.09 7.04zM11.344 43.118l-1.37.686s-1.761-4.525 0-6.857c1.763-2.333 4.499-1.345 5.82-.343 1.32 1.002-4.45 6.514-4.45 6.514z"/>
        <path fill="#3A434A" d="M80.04 89.614c2.708-.486 4.837-2.743 4.837-2.743s1.897-3.8-1.027-10.286-7.214-6.034-8.065-5.828c-.852.206-4.229.84-5.967 3.085C68.08 76.087 76.776 90.2 80.04 89.614z"/>
        <path fill="#85939A" d="M75.785 73.57c3.86 2.231 6.993 7.442 6.993 11.627 0 4.186-3.133 5.771-6.993 3.539-3.86-2.233-6.994-7.443-6.994-11.629 0-4.185 3.134-5.77 6.994-3.538z"/>
        <path fill="#414B4E" d="M72.527 72.557h.038l.037.001.038.001.038.002.038.001.038.002.038.003.039.002.038.003.039.003.039.004.039.004.039.004.039.005.04.004.038.006.04.005.04.006.04.006.04.006.04.007.04.007.04.008.04.008.04.008.04.008.042.009.04.009.041.01.041.009.042.01.04.01.042.011.041.011.042.011.042.012.041.012.042.013.042.012.042.013.042.014.042.013.043.014.042.015.043.014.042.015.043.016.043.016.043.016.043.016.043.017.043.017.043.017.044.018.043.018.043.018.044.019.044.02.044.019.043.02.044.02.044.02.044.02.045.022.044.021.044.022.045.022.044.023.045.023.044.023.045.023.045.024.045.025.045.024.044.025.046.025.045.026.045.026.045.026.045.027.045.027.045.027.045.027.045.028.045.028.045.028.044.028.045.03.089.057.088.06.089.06.087.06.088.063.087.063.087.064.087.065.086.066.086.067.086.068.085.069.085.07.084.07.084.071.084.073.083.073.082.074.083.074.081.076.082.077.081.077.08.078.08.078.08.08.08.08.078.081.078.082.078.082.077.083.077.084.076.085.075.085.076.086.074.086.074.087.074.088.073.088.072.09.072.089.071.09.07.09.071.092.07.092.068.092.068.093.068.093.067.094.067.094.065.095.065.095.065.096.064.096.063.096.062.097.062.097.06.098.061.098.06.099.06.099.057.099.058.1.057.1.056.1.055.1.055.1.054.102.053.1.052.102.051.102.051.102.05.102.05.103.048.103.047.102.047.103.046.104.045.103.044.103.044.104.042.104.042.103.04.104.04.104.04.104.038.104.037.105.037.104.035.104.035.104.033.105.033.104.032.104.03.104.03.104.03.104.028.104.027.104.026.104.025.104.024.104.023.103.022.104.021.103.02.103.02.103.017.102.017.103.016.102.015.102.014.102.006.051.007.051.005.05.006.051.006.051.005.05.005.051.004.05.005.05.004.051.003.05.004.05.003.05.003.05.003.05.002.05.003.05.001.05.002.049.001.05.001.049.001.049v.196l-.001.048v.048l-.002.048-.002.048-.001.048-.003.047-.002.047-.003.047-.003.046-.003.046-.004.047-.003.045-.004.046-.005.045-.004.045-.005.045-.005.045-.006.044-.006.044-.005.044-.007.043-.006.044-.007.043-.007.043-.007.042-.008.043-.008.042-.008.042-.008.041-.009.041-.009.042-.009.04-.01.04-.009.041-.01.04-.01.04-.01.04-.011.039-.01.04-.012.038-.011.038-.012.039-.012.038-.012.037-.013.038-.012.037-.013.037-.013.037-.014.036-.013.037-.014.036-.014.035-.015.036-.014.035-.015.035-.015.034-.016.035-.015.034-.016.034-.016.033-.016.034-.017.033-.016.032-.017.033-.017.032-.018.032-.018.032-.017.031-.018.032-.019.03-.018.031-.019.03-.02.03-.018.03-.02.03-.02.03-.02.028-.02.03-.02.028-.02.028-.02.028-.022.027-.021.028-.021.027-.022.027-.022.026-.022.026-.022.026-.022.026-.023.026-.023.025-.023.025-.023.024-.024.025-.023.024-.024.023-.024.024-.025.023-.024.023-.025.023-.025.022-.025.022-.025.022-.026.021-.025.022-.026.02-.026.021-.026.02-.027.02-.026.02-.027.02-.027.02-.027.018-.028.019-.027.018-.028.018-.028.018-.028.018-.029.017-.028.017-.029.016-.029.017-.029.016-.029.015-.03.016-.029.015-.03.015-.03.014-.03.015-.03.014-.03.013-.031.014-.03.013-.032.013-.03.012-.032.012-.032.012-.031.012-.032.011-.032.011-.032.01-.033.011-.032.01-.033.01-.032.01-.033.009-.034.009-.033.008-.033.009-.034.008-.034.007-.034.008-.033.007-.035.007-.034.006-.034.006-.035.006-.035.006-.035.005-.035.005-.035.004-.036.005-.035.004-.036.003-.036.004-.036.003-.036.003-.036.002-.037.002-.036.002-.037.001-.037.002h-.037l-.037.001h-.15l-.037-.002-.038-.001-.038-.002-.038-.002-.039-.002-.038-.003-.039-.003-.038-.003-.039-.003-.039-.004-.039-.004-.039-.005-.04-.005-.039-.005-.04-.005-.039-.006-.04-.006-.04-.007-.04-.007-.04-.007-.04-.007-.04-.008-.04-.008-.041-.008-.04-.01-.042-.008-.04-.01-.041-.01-.041-.01-.042-.01-.04-.01-.042-.012-.042-.01-.041-.013-.042-.012-.042-.012-.042-.013-.042-.013-.042-.013-.042-.014-.043-.014-.042-.014-.043-.015-.042-.015-.043-.015-.043-.016-.043-.016-.043-.016-.043-.017-.043-.017-.043-.018-.044-.017-.043-.018-.044-.019-.043-.018-.044-.02-.044-.019-.044-.02-.043-.02-.044-.02-.045-.021-.044-.021-.044-.022-.044-.022-.045-.022-.044-.022-.045-.023-.044-.023-.045-.024-.045-.024-.045-.024-.045-.025-.045-.025-.045-.025-.045-.025-.045-.026-.045-.027-.045-.026-.046-.027-.044-.027-.045-.028-.045-.027-.045-.028-.045-.028-.044-.029-.045-.028-.089-.059-.088-.059-.089-.06-.088-.061-.087-.062-.088-.063-.086-.065-.087-.065-.086-.066-.086-.067-.086-.067-.085-.07-.085-.069-.084-.07-.084-.072-.083-.072-.084-.073-.082-.074-.083-.075-.082-.075-.081-.077-.08-.077-.082-.078-.08-.079-.08-.08-.079-.08-.078-.08-.078-.082-.078-.083-.077-.083-.077-.084-.076-.084-.076-.085-.075-.086-.075-.087-.073-.087-.074-.087-.073-.089-.072-.089-.072-.09-.071-.09-.071-.09-.07-.091-.07-.092-.069-.092-.068-.093-.067-.093-.067-.094-.067-.094-.066-.095-.065-.095-.064-.096-.064-.096-.063-.097-.062-.097-.062-.097-.061-.098-.06-.098-.06-.098-.06-.099-.058-.1-.057-.099-.057-.1-.056-.1-.055-.1-.055-.101-.054-.101-.053-.101-.052-.102-.052-.102-.05-.102-.05-.102-.05-.102-.048-.103-.047-.103-.047-.103-.046-.103-.045-.103-.045-.104-.043-.103-.042-.104-.042-.104-.04-.104-.04-.104-.04-.104-.038-.104-.038-.104-.036-.104-.035-.104-.035-.105-.034-.104-.032-.104-.032-.104-.031-.105-.03-.104-.029-.104-.028-.104-.027-.104-.026-.104-.025-.103-.024-.104-.023-.104-.022-.103-.021-.103-.02-.103-.02-.103-.018-.103-.016-.102-.016-.103-.015-.102-.014-.102-.006-.05-.007-.051-.006-.051-.005-.05-.006-.051-.005-.051-.005-.05-.004-.05-.005-.051-.004-.05-.004-.05-.003-.05-.003-.05-.004-.05-.002-.05-.002-.05-.003-.05-.001-.05-.002-.05-.001-.049-.001-.05v-.048l-.002-.05v-.098l.001-.048v-.049l.002-.048v-.048l.003-.048.001-.047.003-.047.002-.047.002-.047.004-.047.003-.046.003-.046.004-.046.004-.045.005-.046.004-.045.005-.044.005-.045.006-.044.005-.044.006-.044.007-.044.006-.043.007-.043.007-.043.007-.043.008-.042.007-.042.009-.042.008-.042.008-.04.01-.042.009-.04.009-.041.01-.04.01-.04.01-.04.01-.04.01-.04.012-.038.01-.04.012-.038.012-.038.012-.038.012-.038.012-.037.013-.038.013-.037.013-.036.014-.037.013-.036.014-.036.014-.036.014-.035.015-.035.015-.035.015-.035.015-.034.016-.034.015-.034.017-.034.016-.033.016-.033.017-.033.017-.032.017-.033.018-.032.017-.031.018-.032.018-.031.018-.03.019-.032.019-.03.019-.03.019-.03.02-.03.02-.029.019-.029.02-.028.02-.029.02-.028.022-.028.02-.028.022-.027.021-.027.022-.027.021-.027.022-.026.023-.026.022-.026.023-.025.023-.025.023-.025.023-.025.024-.024.023-.024.024-.024.024-.023.024-.024.025-.022.025-.023.024-.022.026-.023.025-.021.025-.022.026-.021.026-.021.026-.02.026-.021.027-.02.026-.02.027-.02.027-.019.027-.019.028-.018.027-.019.028-.018.028-.018.028-.017.029-.017.028-.017.029-.017.028-.016.03-.016.029-.016.029-.015.03-.015.03-.015.03-.015.03-.014.03-.014.03-.014.03-.013.032-.013.03-.013.032-.013.031-.012.032-.012.031-.011.032-.012.032-.01.032-.011.032-.01.033-.01.032-.01.033-.01.033-.01.033-.008.034-.009.033-.008.034-.008.034-.008.033-.007.034-.007.034-.007.035-.006.035-.007.034-.005.035-.006.035-.005.035-.005.035-.005.036-.004.035-.004.036-.004.036-.003.036-.003.036-.003.036-.002.036-.003.037-.001.037-.002.037-.001h.036l.037-.002h.075zm-.048 2.4h-.017l-.016.001h-.016l-.016.001-.016.001h-.016l-.014.002-.015.001-.016.001-.014.002-.014.001-.014.002-.014.001-.014.002-.013.002-.013.002-.013.002-.012.002-.013.002-.012.003-.012.002-.012.003-.012.002-.01.003-.012.002-.012.003-.01.003-.01.003-.011.003-.01.003-.01.003-.01.003-.01.003-.01.003-.01.003-.008.004-.01.003-.009.003-.008.004-.01.003-.008.004-.008.003-.008.004-.009.004-.008.003-.008.004-.007.004-.008.004-.008.004-.007.004-.008.004-.007.004-.007.004-.008.004-.007.004-.007.005-.007.004-.007.005-.007.004-.007.005-.007.004-.006.005-.007.005-.007.005-.007.005-.007.005-.006.005-.007.005-.007.006-.006.005-.007.006-.006.005-.007.006-.006.006-.007.006-.007.007-.006.006-.007.006-.007.007-.006.007-.007.006-.006.007-.007.008-.007.007-.007.008-.006.007-.007.008-.007.009-.007.008-.007.008-.006.009-.007.009-.007.009-.007.01-.007.009-.007.01-.007.01-.007.01-.007.01-.007.01-.007.011-.007.011-.007.012-.007.011-.007.012-.007.012-.007.013-.007.012-.007.014-.007.013-.007.013-.007.014-.007.014-.007.015-.007.014-.007.015-.007.015-.007.016-.007.016-.007.016-.007.016-.006.017-.007.017-.007.017-.007.018-.006.018-.007.018-.006.019-.007.019-.006.02-.006.019-.006.02-.007.02-.006.02-.006.022-.006.02-.005.022-.006.022-.006.023-.006.022-.005.023-.006.023-.005.024-.005.024-.005.024-.005.025-.005.025-.004.025-.005.026-.005.026-.004.026-.004.027-.004.027-.004.027-.004.028-.004.028-.003.028-.003.03-.003.028-.004.03-.002.03-.003.03-.002.03-.003.03-.002.032-.002.031-.002.032-.001.032-.002.033-.001.033-.001.033-.001.033v.034l-.001.034V77.25l.002.036v.036l.002.036.002.036.002.037.001.036.003.037.002.037.003.038.003.037.002.037.004.038.003.038.004.038.004.038.004.038.004.039.005.039.005.038.004.036.011.082.012.078.012.08.013.08.014.08.015.08.016.082.017.082.017.082.019.082.019.083.02.084.021.083.022.084.023.085.023.084.024.085.026.085.026.086.027.086.028.086.028.086.03.086.03.086.03.087.033.087.032.087.034.087.034.087.035.087.036.087.036.087.038.088.038.087.038.087.04.087.04.087.041.087.042.087.043.087.043.087.044.087.044.087.046.086.045.086.047.086.048.086.047.086.049.085.05.086.05.085.05.084.05.085.053.084.052.084.053.083.054.083.054.083.055.082.055.082.055.082.057.081.057.08.057.081.058.08.058.08.06.078.059.079.06.078.06.077.06.077.062.076.061.076.063.075.062.075.063.074.063.073.064.073.064.072.064.071.065.071.065.07.066.07.065.068.066.068.066.067.067.067.067.066.067.065.067.064.068.063.068.063.068.062.068.06.069.06.068.06.069.059.069.057.069.057.069.056.069.055.07.054.069.053.069.052.07.051.07.05.069.05.07.048.069.048.07.046.071.047.033.021.035.022.034.022.035.022.035.02.034.022.035.021.035.02.034.021.035.02.034.02.035.02.034.018.034.02.034.018.033.018.034.018.033.017.033.018.033.017.033.016.032.016.033.016.032.016.032.015.032.015.032.015.03.015.032.014.031.013.031.014.03.013.031.013.03.013.03.012.03.012.03.012.03.011.029.011.029.011.028.01.03.01.028.01.028.01.028.01.027.01.028.008.028.009.026.008.027.008.027.008.026.008.026.007.026.007.026.007.025.007.026.006.025.006.024.006.025.006.024.005.024.005.024.005.023.005.023.004.024.005.022.004.023.003.022.004.022.003.021.004.022.003.022.002.02.003.021.002.02.003.021.002.02.001.02.002.02.001.019.002h.018l.02.002h.018l.018.001h.018l.017.001h.085l.016-.001h.016l.016-.001.015-.001.016-.001.015-.001.014-.002.015-.001.014-.002.014-.001.014-.002.014-.002.013-.001.013-.002.013-.002.013-.003.012-.002.012-.002.012-.002.012-.003.012-.003.01-.002.012-.003.011-.002.01-.003.012-.003.01-.003.01-.003.01-.003.01-.003.01-.003.01-.004.01-.003.008-.003.01-.003.008-.004.01-.003.008-.004.008-.003.009-.004.008-.003.008-.004.009-.004.007-.004.008-.003.008-.004.008-.004.007-.004.008-.004.007-.004.007-.004.008-.005.007-.004.007-.004.007-.004.007-.005.007-.005.007-.004.007-.005.006-.004.007-.005.007-.005.007-.005.007-.005.006-.005.007-.006.006-.005.007-.006.007-.005.006-.006.007-.006.007-.006.006-.006.007-.006.006-.006.007-.007.006-.006.007-.007.007-.007.006-.007.007-.007.007-.008.006-.007.007-.008.007-.008.007-.008.006-.008.007-.009.007-.008.007-.01.007-.008.007-.01.007-.009.007-.01.007-.01.007-.01.007-.01.006-.01.008-.012.007-.01.007-.012.007-.012.007-.012.007-.012.007-.012.007-.013.007-.013.007-.013.007-.013.007-.014.007-.014.007-.015.007-.014.007-.015.007-.015.007-.016.007-.016.006-.016.007-.017.007-.016.007-.017.006-.018.007-.017.007-.018.006-.019.007-.018.006-.02.007-.019.006-.02.007-.02.006-.02.005-.02.007-.021.005-.021.006-.022.006-.022.006-.022.005-.023.006-.023.005-.023.005-.023.006-.024.005-.025.005-.024.005-.025.004-.026.005-.025.004-.026.005-.027.004-.026.004-.027.004-.028.004-.027.003-.029.004-.028.003-.029.003-.029.003-.03.003-.029.003-.03.002-.03.003-.031.002-.031.002-.032.002-.032.001-.032.002-.032.001-.033.001-.033v-.034l.002-.033V85.09l-.001-.035v-.036l-.002-.036-.002-.036v-.037l-.003-.036-.002-.037-.002-.037-.002-.037-.003-.037-.003-.037-.003-.038-.003-.037-.003-.038-.004-.038-.004-.039-.004-.038-.005-.038-.004-.039-.005-.039-.004-.036-.011-.08-.012-.08-.012-.08-.014-.079-.014-.08-.014-.081-.016-.081-.017-.082-.018-.082-.018-.083-.02-.083-.02-.083-.02-.084-.022-.084-.023-.084-.023-.085-.025-.085L80 82.83l-.026-.085-.027-.086-.028-.086-.028-.086-.03-.086-.03-.087-.03-.086-.033-.087-.032-.087-.034-.087-.034-.087-.035-.087-.036-.087-.036-.088-.037-.087-.039-.087-.038-.087-.04-.088-.04-.087-.041-.087-.042-.087-.043-.087-.043-.087-.044-.086-.044-.087-.046-.086-.046-.087-.046-.086-.048-.086-.048-.085-.048-.086-.05-.085-.05-.085-.05-.085-.051-.084-.052-.084-.052-.084-.053-.083-.054-.084-.054-.082-.054-.083-.056-.082-.056-.081-.056-.082-.057-.08-.057-.08-.058-.08-.058-.08-.06-.079-.059-.078-.06-.078-.06-.078-.06-.076-.062-.077-.061-.075-.063-.076-.062-.074-.063-.074-.063-.073-.064-.073-.064-.072-.064-.072-.065-.07-.065-.07-.065-.07-.066-.069-.066-.068-.067-.067-.066-.066-.067-.066-.067-.065-.068-.064-.067-.064-.068-.062-.068-.062-.068-.061-.069-.06-.068-.06-.069-.058-.069-.057-.069-.057-.069-.056-.07-.055-.069-.054-.069-.053-.07-.052-.069-.052-.07-.05-.069-.05-.07-.048-.069-.047-.07-.047-.072-.047-.032-.02-.035-.023-.034-.021-.035-.022-.035-.021-.035-.022-.034-.02-.035-.021-.034-.02-.035-.02-.035-.02-.034-.02-.034-.019-.034-.019-.033-.018-.034-.018-.034-.018-.033-.018-.033-.017-.033-.017-.033-.017-.032-.016-.033-.016-.032-.015-.032-.016-.032-.015-.031-.014-.032-.015-.031-.014-.031-.014-.031-.013-.031-.013-.03-.013-.03-.013-.03-.012-.03-.012-.03-.012-.03-.011-.03-.012-.028-.01-.029-.01-.029-.011-.028-.01-.028-.01-.028-.01-.028-.009-.027-.009-.028-.008-.026-.009-.027-.008-.027-.008-.026-.007-.026-.007-.026-.008-.027-.007-.025-.006-.024-.006-.026-.007-.024-.005-.025-.006-.024-.005-.024-.006-.024-.004-.024-.005-.023-.005-.022-.004-.023-.004-.023-.004-.022-.003-.022-.004-.022-.003-.021-.003-.022-.003-.021-.002-.02-.003-.02-.002-.021-.002-.02-.002-.02-.001-.02-.002-.019-.001-.018-.001-.02-.001-.018-.001h-.018l-.018-.001h-.069z"/>
        <path fill="#85939A" d="M75.785 75.425c2.915 1.686 5.282 5.621 5.282 8.782 0 3.162-2.367 4.36-5.282 2.673-2.915-1.686-5.282-5.622-5.282-8.783 0-3.161 2.367-4.359 5.282-2.672z"/>
        <path fill="#9BB6BD" d="M75.785 77.651c1.782 1.03 3.229 3.436 3.229 5.369 0 1.932-1.447 2.664-3.23 1.633-1.781-1.03-3.228-3.436-3.228-5.368 0-1.932 1.447-2.664 3.229-1.634z"/>
        <path fill="#BECED5" d="M75.785 79.136c1.026.593 1.86 1.979 1.86 3.092s-.834 1.535-1.86.94c-1.026-.593-1.86-1.978-1.86-3.091 0-1.113.834-1.535 1.86-.941z"/>
        <path fill="#3A434A" d="M20.236 54.957c3.179-.904 4.837-2.743 4.837-2.743s1.897-3.799-1.027-10.285c-2.924-6.486-7.214-6.035-8.065-5.829-.852.206-4.229.841-5.967 3.086-1.738 2.245 7.032 16.68 10.222 15.771z"/>
        <path fill="#85939A" d="M15.98 38.913c3.86 2.232 6.994 7.442 6.994 11.628 0 4.185-3.133 5.77-6.993 3.538-3.86-2.232-6.994-7.443-6.994-11.628 0-4.185 3.134-5.77 6.994-3.538z"/>
        <path fill="#414B4E" d="M12.723 37.9l.038.001h.037l.038.002.038.001.038.002.038.002.038.002.039.003.038.003.039.003.039.003.039.004.039.005.039.004.04.005.038.005.04.006.04.005.04.007.04.006.04.007.04.007.04.007.04.008.04.008.04.009.042.008.04.01.041.009.041.01.041.01.042.01.04.01.042.011.042.012.041.012.042.012.042.012.042.013.042.013.042.013.042.014.043.014.042.014.043.015.042.015.043.015.043.016.043.016.043.016.043.017.043.017.043.018.043.017.044.018.043.019.044.018.044.02.043.02.044.019.044.02.044.02.044.021.045.021.044.022.044.022.045.022.044.022.045.023.044.023.045.024.045.024.045.024.045.025.044.025.046.025.045.026.045.026.045.026.045.026.045.027.045.027.045.028.045.027.045.028.045.028.044.029.045.029.089.058.088.059.089.06.087.061.088.062.087.064.087.064.087.065.086.066.086.067.086.067.085.07.084.069.085.07.084.072.083.072.084.073.082.074.083.075.081.076.082.076.08.077.081.078.08.079.08.08.08.08.078.08.078.082.078.083.077.083.077.084.076.084.076.085.075.086.074.087.074.087.074.087.073.089.072.089.072.09.071.09.07.09.07.091.07.092.07.092.067.093.068.093.067.094.066.095.066.094.065.095.065.096.064.096.063.097.062.097.062.097.061.098.06.098.06.098.059.1.058.098.058.1.057.1.056.1.055.1.055.101.054.1.053.102.052.102.052.102.05.102.05.102.05.102.048.103.047.103.047.103.046.103.045.103.044.104.044.103.042.104.042.104.04.104.04.104.04.104.038.104.037.104.037.104.035.105.035.104.033.104.033.104.032.105.03.104.03.104.03.104.028.104.027.104.026.104.025.103.024.104.023.104.022.103.021.103.02.103.02.103.017.103.017.102.016.103.015.102.014.102.006.05.006.051.006.051.006.05.006.052.005.05.005.05.004.05.005.051.004.05.003.05.004.05.003.05.003.05.003.05.002.05.002.05.002.05.002.05.001.049.001.05v.049l.001.049v.195l-.002.048-.001.048-.002.048-.002.047-.002.047-.002.048-.003.046-.003.047-.003.046-.004.046-.003.046-.004.045-.005.046-.004.045-.005.045-.005.044-.006.044-.006.044-.006.044-.006.044-.006.043-.007.043-.007.043-.007.043-.008.042-.008.042-.008.042-.008.042-.009.041-.009.04-.009.042-.01.04-.009.04-.01.04-.01.04-.01.04-.01.04-.012.038-.011.04-.011.038-.012.038-.012.038-.012.038-.013.037-.012.038-.013.037-.013.037-.014.036-.013.036-.014.036-.014.036-.015.035-.014.035-.015.035-.015.035-.016.034-.015.034-.016.034-.016.034-.016.033-.017.033-.016.033-.017.033-.017.032-.018.032-.017.032-.018.031-.018.031-.019.031-.018.03-.019.031-.019.03-.02.03-.019.03-.02.029-.02.029-.02.029-.02.028-.02.028-.02.028-.022.028-.02.027-.022.027-.022.027-.022.027-.022.026-.022.026-.022.026-.023.025-.023.025-.023.025-.023.025-.024.024-.023.024-.024.024-.024.023-.025.024-.024.023-.025.022-.025.023-.025.022-.025.022-.025.021-.026.021-.026.021-.026.02-.026.021-.027.02-.026.02-.027.02-.027.019-.027.019-.028.018-.027.019-.028.018-.028.017-.028.018-.029.017-.028.017-.029.017-.029.016-.029.016-.029.016-.03.015-.029.016-.03.014-.03.015-.03.014-.03.014-.03.014-.031.013-.03.013-.032.013-.031.013-.031.012-.032.012-.031.011-.032.012-.032.01-.032.012-.033.01-.032.01-.033.01-.033.01-.033.008-.033.01-.033.008-.033.008-.034.008-.034.008-.034.007-.034.007-.034.007-.034.007-.035.006-.034.006-.035.005-.035.005-.035.005-.035.005-.036.004-.035.004-.036.004-.036.003-.036.003-.036.003-.036.002-.037.003-.036.002h-.037l-.037.002h-.037l-.037.002H19.201l-.037-.001-.038-.001-.038-.002-.038-.001-.038-.002-.039-.003-.038-.002-.039-.003-.038-.003-.039-.004-.039-.004-.039-.004-.039-.004-.04-.005-.039-.006-.04-.005-.039-.006-.04-.006-.04-.006-.04-.007-.04-.007-.04-.008-.04-.007-.04-.009-.041-.008-.04-.009-.042-.009-.04-.01-.041-.009-.042-.01-.04-.01-.042-.011-.041-.011-.042-.011-.042-.012-.041-.012-.042-.012-.042-.013-.042-.013-.042-.013-.043-.014-.042-.014-.042-.015-.043-.014-.042-.015-.043-.016-.043-.015-.043-.016-.043-.017-.043-.017-.043-.016-.043-.018-.044-.018-.043-.018-.044-.018-.043-.019-.044-.02-.044-.018-.044-.02-.043-.02-.044-.02-.045-.022-.044-.02-.044-.022-.044-.022-.045-.022-.044-.023-.045-.023-.044-.023-.045-.023-.045-.024-.045-.025-.045-.024-.045-.025-.045-.025-.045-.026-.045-.026-.045-.026-.045-.027-.046-.027-.044-.027-.045-.027-.045-.028-.045-.028-.045-.028-.044-.028-.045-.03-.089-.057-.088-.06-.089-.06-.088-.06-.087-.063-.088-.063-.087-.064-.086-.065-.086-.066-.086-.067-.086-.068-.085-.069-.085-.07-.084-.07-.084-.071-.084-.073-.083-.073-.082-.074-.083-.074-.082-.076-.081-.077-.081-.077-.08-.078-.08-.078-.08-.08-.08-.08-.078-.081-.078-.082-.078-.082-.077-.083-.077-.084-.076-.085-.076-.085-.075-.086-.074-.086-.075-.087-.073-.088-.073-.088-.072-.09-.072-.089-.071-.09-.071-.09-.07-.092-.07-.091-.068-.093-.069-.093-.067-.093-.067-.093-.067-.095-.065-.095-.066-.095-.064-.095-.064-.097-.063-.096-.062-.097-.062-.097-.061-.098-.06-.098-.06-.099-.06-.099-.058-.099-.057-.1-.057-.099-.056-.1-.055-.1-.055-.101-.054-.102-.053-.1-.052-.102-.052-.102-.05-.102-.05-.102-.05-.103-.048-.102-.048-.103-.046-.103-.046-.104-.045-.103-.045-.103-.043-.104-.042-.103-.042-.104-.041-.104-.04-.104-.04-.104-.037-.105-.038-.103-.036-.105-.035-.104-.035-.104-.034-.104-.032-.105-.032-.104-.031-.104-.03-.104-.029-.104-.028-.104-.027-.104-.026-.104-.025-.104-.024-.104-.023-.103-.022-.103-.021-.104-.02-.103-.02-.103-.017-.102-.017-.103-.016-.102-.015-.102-.014-.102-.006-.051-.007-.05-.006-.052-.005-.05-.006-.05-.005-.052-.005-.05-.004-.05-.005-.05-.004-.05-.004-.051-.003-.05-.003-.05-.003-.05-.003-.05-.002-.05-.003-.05-.001-.05-.002-.049-.001-.05-.001-.049-.001-.049v-.244l.002-.049.001-.047.002-.048.001-.048.003-.047.002-.047.003-.047.003-.046.003-.046.003-.046.004-.046.004-.046.005-.045.004-.045.005-.045.005-.044.006-.045.005-.044.006-.044.007-.043.006-.044.007-.043.007-.043.007-.042.008-.043.008-.041.008-.042.008-.042.009-.041.008-.041.01-.041.009-.04.01-.041.01-.04.01-.04.01-.04.01-.039.012-.039.01-.039.012-.038.012-.039.012-.038.012-.037.012-.038.013-.037.013-.037.013-.037.013-.036.014-.036.014-.036.014-.036.014-.036.015-.035.015-.035.015-.034.015-.035.016-.034.016-.033.016-.034.016-.034.016-.033.017-.033.017-.032.017-.032.018-.032.017-.032.018-.031.018-.031.018-.031.019-.031.019-.03.019-.03.019-.03.02-.03.019-.03.02-.028.02-.029.02-.028.02-.029.022-.028.02-.027.022-.027.021-.028.022-.027.021-.026.022-.026.023-.027.022-.025.023-.026.023-.025.023-.025.023-.024.023-.025.024-.024.024-.023.024-.024.024-.023.025-.023.025-.023.024-.022.026-.022.025-.022.025-.021.026-.022.026-.02.026-.021.026-.02.027-.02.026-.02.027-.02.027-.02.027-.018.028-.019.027-.018.028-.018.028-.018.028-.018.028-.017.029-.016.029-.017.028-.016.03-.017.029-.015.03-.016.029-.015.03-.015.03-.014.03-.015.03-.014.03-.013.03-.014.032-.013.03-.013.032-.012.031-.012.032-.012.031-.012.032-.011.032-.011.032-.01.032-.011.033-.01.033-.01.032-.01.033-.009.033-.009.034-.008.033-.009.034-.007.033-.008.034-.008.034-.007.035-.007.034-.006.034-.006.035-.006.035-.006.035-.005.035-.005.035-.004.036-.004.035-.005.036-.003.036-.004.036-.003.036-.003.036-.002.036-.002.037-.002.037-.001.036-.001.037-.002H12.723zm-.048 2.4l-.017.001h-.016l-.017.001h-.016l-.015.002h-.016l-.015.001-.015.002h-.014l-.015.002-.014.002-.014.001-.014.002-.014.002-.013.002-.013.001-.013.003-.013.002-.012.002-.012.002-.012.003-.012.002-.012.002-.011.003-.011.003-.011.003-.011.002-.01.003-.011.003-.01.003-.01.003-.01.003-.01.003-.01.004-.01.003-.008.003-.01.004-.009.003-.008.003-.01.004-.008.003-.008.004-.008.004-.009.003-.008.004-.008.003-.008.005-.007.003-.008.004-.008.004-.007.004-.007.004-.008.005-.007.004-.007.004-.007.004-.007.005-.007.004-.007.005-.007.004-.007.005-.007.005-.006.005-.007.004-.007.005-.007.005-.006.006-.007.005-.007.005-.006.006-.007.005-.006.006-.007.006-.007.006-.006.006-.007.006-.006.006-.007.007-.007.006-.006.007-.007.007-.007.007-.006.007-.007.008-.007.007-.007.008-.006.008-.007.008-.007.008-.007.009-.007.008-.006.01-.007.008-.007.01-.007.009-.007.01-.007.01-.007.01-.007.01-.007.011-.007.01-.007.012-.007.011-.007.012-.007.012-.007.012-.007.012-.007.013-.007.013-.007.013-.007.014-.007.013-.007.015-.007.014-.007.014-.007.015-.007.016-.007.015-.007.016-.007.016-.007.017-.006.016-.007.018-.007.017-.006.018-.007.017-.007.019-.006.018-.007.02-.006.019-.006.02-.007.02-.006.02-.006.02-.006.02-.006.022-.006.022-.005.022-.006.022-.006.023-.005.023-.006.023-.005.024-.005.024-.005.024-.005.024-.005.025-.005.026-.004.025-.005.026-.004.027-.004.026-.004.027-.004.028-.004.028-.003.028-.004.028-.003.029-.003.029-.003.03-.003.029-.003.03-.003.03-.002.031-.002.031-.002.032-.002.031-.002.033-.001.032-.001.033-.001.033-.001.034-.001.033V42.592l.002.036v.036l.002.036.002.037.002.036.001.037.003.037.002.037.003.037.002.037.004.038.003.038.003.037.004.038.004.039.004.038.004.038.005.04.005.038.004.036.011.081.012.079.012.08.013.079.014.08.015.081.016.081.017.082.017.082.019.083.019.083.02.083.021.084.022.084.023.084.023.085.025.085.025.085.026.085.027.086.027.086.03.086.028.087.03.086.032.087.031.086.033.087.034.087.034.087.035.087.036.088.036.087.037.087.038.087.04.088.039.087.04.087.041.087.042.087.042.087.044.087.044.086.044.087.045.087.046.086.047.086.047.086.048.086.05.085.048.085.05.085.05.085.052.084.052.084.052.084.053.084.054.083.054.082.054.083.056.082.055.081.057.082.057.08.057.08.058.08.058.08.06.079.059.078.06.078.06.078.06.076.062.077.061.075.062.076.063.074.063.074.063.074.064.072.064.072.064.072.065.07.065.07.065.07.066.069.066.067.066.068.067.066.067.066.067.065.067.064.068.064.068.062.068.062.068.061.068.06.069.06.069.058.069.058.069.056.069.056.069.055.07.054.069.053.07.052.069.052.07.05.069.05.07.048.069.047.07.047.071.047.033.02.035.023.034.021.035.022.035.022.034.02.035.021.035.021.034.02.035.02.034.02.035.02.034.02.034.018.034.018.033.019.033.017.034.018.033.017.033.017.033.017.032.016.033.016.032.015.032.016.032.015.031.015.032.014.031.014.031.014.031.013.03.014.031.013.03.012.03.012.03.012.03.012.03.012.029.01.029.011.029.011.028.01.029.01.028.01.028.01.028.009.027.009.027.008.027.009.027.008.027.008.026.007.026.008.026.007.026.006.025.007.025.006.025.007.025.005.025.006.024.005.024.006.024.005.023.004.023.005.023.004.023.004.023.004.022.003.022.004.022.003.021.003.021.003.022.002.02.003.02.002.021.002.02.002.02.001.02.002.018.001.02.002h.018l.019.001h.018l.018.001h.017l.018.001h.05l.017-.001h.016l.016-.001h.016l.016-.002h.015l.015-.002.014-.001.015-.002.014-.001.014-.002.014-.001.013-.002.014-.002.013-.002.013-.002.013-.002.012-.002.012-.002.012-.003.012-.003.011-.002.012-.003.011-.002.011-.003.01-.003.012-.003.01-.002.01-.004.01-.003.01-.003.01-.003.01-.003.009-.003.01-.003.008-.004.01-.003.008-.004.01-.003.008-.004.008-.003.008-.004.008-.004.008-.003.008-.004.008-.004.008-.004.008-.004.007-.004.008-.004.007-.004.007-.004.008-.004.007-.004.007-.005.007-.004.007-.004.007-.005.007-.005.007-.004.007-.005.006-.005.007-.005.007-.005.006-.005.007-.005.007-.005.006-.006.007-.005.007-.006.006-.005.007-.006.006-.006.007-.006.006-.006.007-.007.007-.006.006-.007.007-.006.007-.007.006-.008.007-.007.007-.007.007-.008.006-.007.007-.008.007-.008.007-.009.006-.008.007-.009.007-.008.007-.01.007-.009.007-.01.007-.01.007-.01.007-.01.007-.01.007-.01.007-.011.007-.011.007-.012.007-.011.007-.012.007-.013.007-.012.007-.013.007-.012.007-.014.007-.013.007-.014.007-.014.007-.014.007-.015.007-.015.007-.015.007-.015.007-.017.006-.015.007-.017.007-.017.007-.017.007-.017.006-.018.007-.018.006-.018.007-.019.006-.019.007-.019.006-.02.006-.02.006-.02.007-.02.006-.021.006-.022.005-.021.006-.022.006-.023.005-.022.006-.023.005-.023.006-.024.005-.024.005-.024.005-.025.005-.025.004-.025.005-.026.004-.026.005-.026.004-.027.004-.027.004-.027.004-.028.003-.028.004-.028.003-.03.003-.028.003-.03.003-.03.003-.03.002-.03.003-.03.002-.032.002-.031.002-.032.001-.032.002-.033.001-.032.001-.034.001-.033v-.034l.001-.034V50.435l-.001-.036v-.036l-.002-.036-.001-.036-.002-.036-.002-.037-.002-.036-.002-.037-.002-.037-.003-.037-.003-.038-.003-.037-.003-.038-.004-.038-.003-.038-.004-.038-.004-.039-.005-.038-.004-.039-.005-.038-.004-.036-.011-.081-.012-.08-.012-.079-.013-.08-.015-.08-.014-.08-.016-.082-.017-.082-.018-.082-.018-.082-.02-.083-.02-.083-.02-.084-.022-.084-.023-.084-.023-.085-.025-.085-.025-.086-.026-.085-.027-.086-.028-.085-.028-.087-.03-.086-.03-.086-.03-.087-.033-.087-.032-.086-.034-.088-.034-.087-.035-.087-.036-.087-.036-.087-.038-.087-.038-.088-.039-.087-.04-.087-.04-.087-.04-.087-.042-.087-.043-.087-.043-.087-.044-.087-.044-.086-.046-.087-.046-.086-.046-.086-.048-.086-.048-.086-.048-.085-.05-.085-.05-.086-.05-.084-.051-.085-.052-.084-.052-.084-.053-.083-.054-.083-.054-.083-.055-.082-.055-.082-.056-.082-.056-.08-.057-.082-.057-.08-.058-.08-.059-.08-.058-.078-.06-.079-.06-.078-.06-.077-.06-.077-.062-.076-.062-.076-.062-.075-.062-.075-.063-.073-.063-.074-.064-.073-.064-.072-.064-.071-.065-.071-.065-.07-.066-.07-.065-.068-.066-.068-.067-.067-.066-.067-.067-.066-.067-.064-.068-.065-.067-.063-.068-.063-.068-.061-.068-.061-.069-.06-.068-.06-.069-.058-.069-.058-.069-.057-.069-.055-.07-.056-.069-.053-.069-.054-.07-.052-.069-.051-.07-.05-.069-.05-.07-.048-.07-.048-.069-.046-.072-.047-.032-.021-.035-.022-.035-.022-.034-.022-.035-.02-.034-.022-.035-.021-.035-.02-.034-.02-.035-.021-.034-.02-.035-.02-.034-.019-.034-.018-.034-.019-.033-.018-.034-.018-.033-.018-.033-.017-.033-.016-.033-.017-.032-.016-.033-.016-.032-.016-.032-.015-.032-.015-.032-.015-.031-.014-.031-.014-.031-.014-.031-.014-.031-.013-.03-.013-.03-.012-.03-.013-.03-.012-.03-.011-.03-.012-.029-.011-.03-.01-.028-.012-.029-.01-.028-.01-.028-.01-.028-.009-.028-.01-.027-.008-.027-.009-.028-.008-.027-.008-.026-.008-.026-.008-.027-.007-.025-.007-.026-.007-.026-.007-.025-.006-.025-.006-.025-.006-.024-.006-.024-.005-.024-.005-.024-.005-.023-.005-.024-.004-.023-.004-.023-.004-.022-.004-.022-.004-.022-.003-.022-.003-.021-.004-.022-.002-.02-.003-.022-.002-.02-.003-.02-.002-.02-.001-.02-.002-.02-.001-.019-.002h-.019l-.018-.002h-.019l-.018-.001h-.018l-.018-.001H12.675z"/>
        <path fill="#85939A" d="M15.98 40.768c2.916 1.686 5.283 5.622 5.283 8.783 0 3.161-2.367 4.359-5.282 2.673-2.915-1.687-5.282-5.622-5.282-8.783 0-3.161 2.367-4.36 5.282-2.673z"/>
        <path fill="#9BB6BD" d="M15.98 42.995c1.783 1.03 3.23 3.436 3.23 5.368 0 1.932-1.447 2.664-3.23 1.634-1.781-1.03-3.228-3.436-3.228-5.369 0-1.932 1.447-2.664 3.229-1.633z"/>
        <path fill="#BECED5" d="M15.98 44.48c1.027.593 1.86 1.979 1.86 3.091 0 1.113-.833 1.535-1.86.942-1.026-.594-1.859-1.98-1.859-3.093s.833-1.535 1.86-.94z"/>
        <path fill="#E6C430" d="M6.16 29.957s-.778 6.857 3.08 9.6c-.203-1.497 1.49-7.181 8.899-.686 7.41 6.495 6.845 12.343 6.845 12.343L68.791 78.3s-3.648-11.998 7.53-6.515c3.69 1.81 8.585 9.525 7.872 14.743 1.417.681 11.267 2.932 20.877-2.743s14.755-8.545 15.743-10.628c.303-.85 2.55-2.915 2.396-5.143a401.856 401.856 0 0 0-.343-4.114L84.877 75.214s-2.501-4.124-7.872-6.514c-5.37-2.39-10.145-2.817-10.952 3.665-5.715-3.602-37.989-23.208-37.989-23.208s-2.1-10.108-9.583-14.057c-7.483-3.95-5.937-2.228-7.53-2.057-1.592.17-3.74-.553-4.79-3.086"/>
        <path fill="#CCAE2B" d="M123.558 61.157s1.12 2.678-.007 5.828c-1.347 1.853-20.452 19.826-37.305 13.372-1.682-.645-2.188-3.074-3.422-4.8-1.235-1.726 2.737-2.4 2.737-2.4s7.189 9.645 26.353-2.461c7.007-4.426 11.644-9.54 11.644-9.54z"/>
        <path fill="#998320" d="M84.877 78.985v1.029s4.207 2.427 8.898 2.057c4.692-.37 10.062-.786 15.06-3.771 4.997-2.986 9.787-5.656 11.978-7.886 2.19-2.23 3.57-3.214 3.163-7.793-.43.1-.425.25-.425.25s-.239 3.739-5.818 7.2c-5.58 3.461-11.48 7.118-13.006 7.886-1.525.768-8.335 3.666-15.743 2.4-1.295-.265-4.107-1.372-4.107-1.372z"/>
        <path fill="#4798CC" d="M41.257 47.344a.335.335 0 0 1 .155.282v1.607a.146.146 0 0 1-.225.123L37.804 47.2a.342.342 0 0 1-.157-.288V45.31a.146.146 0 0 1 .225-.124l3.385 2.159z"/>
        <path fill="#2C3E42" d="M41.257 47.344a.335.335 0 0 1 .155.282v.87l-2.928-1.836-.025.957-.655-.417a.342.342 0 0 1-.157-.288V45.31a.146.146 0 0 1 .225-.124l3.385 2.159z"/>
        <path fill="#3F4F53" d="M105.923 76.94a.343.343 0 0 0-.169.295v2.816a.142.142 0 0 0 .217.121l11.941-7.389a.343.343 0 0 0 .163-.291v-2.465a.142.142 0 0 0-.214-.122l-11.938 7.035z"/>
        <path fill="#F6F5F3" d="M106.265 77.172a.343.343 0 0 0-.169.295v1.95a.142.142 0 0 0 .217.12l11.257-6.965a.343.343 0 0 0 .163-.292v-1.618a.142.142 0 0 0-.214-.122l-11.254 6.632z"/>
        <path fill="#FFD833" d="M40.043 2.258l-3.08-2.13s-3.005-.912-10.268 2.13C19.432 5.3 13.547 9.912 10.7 12.814 7.85 15.716 5.414 21.6 8.987 23.785 12.561 25.971 85.561 73.5 85.561 73.5s11.188 1.678 17.455-1.715c12.475-6.752 18.455-12.93 18.14-14.742-.317-1.813-.592-3.74-3.081-5.83-2.49-2.088-16.435-12.685-16.435-12.685s-13.585-13.331-18.474-16.8C78.276 18.26 59.023 6.45 50.31 3.214c-1.87-.76-3.917-1-10.267-.956z"/>
        <path fill="#FEE88C" d="M84.877 62.185l17.4 9.837s-.993.922-1.657.686c-.866-.308-16.028-9.785-15.743-10.523z"/>
        <path fill="#CCAE2B" d="M98.225 73.157s17.123-3.682 22.246-17.89c.446.51 2.119 1.574 3.087 5.89-3.111 4.445-15.951 14.608-26.018 15.771-.292-1.73.342-2.707.342-2.707l.343-1.064z"/>
        <path fill="#CCAE2B" d="M117.733 62.689s-1.057-4.995-9.926-14.743c-.466-.057-.342 0-.342 0s6.47 6.761 9.24 14.743c.425.209 1.028 0 1.028 0z"/>
        <path fill="#998320" d="M101.99 71.1c3.857-2.053 11.66-6.916 13.69-8.229 1.166-.754 1.313 3.484.341 4.457-1.882 1.886-8.84 6.114-11.294 6.857-1.245.377-4.198-2.309-2.738-3.085z"/>
        <path fill="#F6F5E9" d="M88.3 71.442c.378-.046 4.824-.027 6.844.343 3.399.623 7.02 2.8 6.449 3.772-.57.971-5.885 2.182-9.871 2.057-2.623-.083-6.188-.119-6.16-3.086.028-2.993 2.317-3.034 2.737-3.086zM122.182 58.414c-.016 2.056-1.52 5.11-3.765 6.857-.612-2.844-.756-11.79 1.37-12.343.952-.248 2.41 3.416 2.395 5.486z"/>
        <path fill="#CCAE2B" d="M13.348 17.271s11.465-1.323 17.16 1.029c5.694 2.351 19.326 10.548 28.016 17.828 3.484 6.418 12.32 21.037 12.32 21.037l10.61 10.163-.342.343-16.77-11.032S15.811 26.506 13.69 22.043c-.83-1.472-2.41-3.565-.342-4.772z"/>
        <path fill="#626B6E" d="M58.524 36.814c-.826-1.3 6.815-2.572 13.348-6.54 9.384-5.7 9.75-8.642 10.952-8.203 2.222.813 15.23 13.389 17.454 16.114 4.026 4.935-6.982 10.408-10.267 12.343-3.463 2.04-15.83 10.593-20.535 4.457-2.307-3.008-9.403-15.734-10.952-18.171z"/>
        <g transform="translate(58.182 22.013)">
            <mask id="b" fill="#fff">
                <use xlink:href="#a"/>
            </mask>
            <path fill="#FFF" fill-opacity=".094" d="M9.583 8.26s24.943 4.556 33.387 19.227c6.85-3.656 2.084-4.793 1.18-8.23-.904-3.436-9.062-15.425-12.663-17.828-3.602-2.402-8.951-4.14-10.61-1.414C19.218 2.74 9.583 8.26 9.583 8.26z" mask="url(#b)"/>
        </g>
        <path fill="#626B6E" d="M41.754 27.557c.673.096 7.815 4.914 10.267 6.857 1.837 1.454 3.563 3.387 4.792 5.19 1.597 2.343 4.791 8.867 4.791 8.867s4.434 8.913 3.083 8.117c-3.33-1.96-24.986-16.345-24.986-16.345s1.003-12.837 2.053-12.686z"/>
        <path fill="#F5DC5F" d="M61.604 48.471l-.684 5.682s4.235 3.327 4.107 2.204c-.293-2.562-3.423-7.886-3.423-7.886z"/>
        <path fill="#FFE98A" d="M62.631 53.271v1.372s-1.503 1.123-2.396 1.37c-.648.181-1.437-.147-1.763-.685-.205-.337 0-1.371 0-1.371l3.132-1.714 1.027 1.028z"/>
        <path fill="#CCAE2B" d="M62.631 53.271v1.372s-1.503 1.123-2.396 1.37c-.648.181-1.437-.147-1.763-.685-.205-.337 0-1.371 0-1.371s.847 1.138 1.421 1.028c.918-.175 2.738-1.714 2.738-1.714z"/>
        <path fill="#998320" d="M7.233 27.214s-3.968 4.668 3.291 6.514c-1.02-2.155-2.048-2.113-3.29-6.514"/>
        <path fill="#626B6E" d="M16.551 24.11a.42.42 0 0 0 .018.682c3.121 2.106 20.394 13.736 20.394 13.736s1.639-11.16 1.026-12.685c-.684-1.704-7.133-3.9-8.556-4.115-1.382-.21-7.44-1.666-12.882 2.381zM25.737 16.928H13.69s-1.23-.174-.685-1.028c.545-.855 4.71-5.715 11.979-9.6 6.565-3.51 10.61-3.772 10.61-3.772s5.865-.608 10.267 0c2.822.39 2.724.995 1.369 1.372-1.355.376-7.873 3.637-10.952 5.485-4.61 2.768-8.751 7.333-10.541 7.543z"/>
        <g transform="translate(12.663 2.127)">
            <mask id="d" fill="#fff">
                <use xlink:href="#c"/>
            </mask>
            <path fill="#FFF" fill-opacity=".094" d="M11.294 3.803s25.68-2.582 26.885 3.662c6.849-3.654.372-1.914-.532-5.35C36.793-1.13 24.453-1.715 17.844.13c-3.07.857-6.55 3.673-6.55 3.673z" mask="url(#d)"/>
        </g>
        <path fill="#998320" d="M27.38 49.5l-1.37.343 41.07 24.984-.684-1.327-39.016-24"/>
        <path fill="#CCAE2B" d="M84.877 80.014l.684-6.514L8.214 23.1s-1.253-1.47-1.027-2.4c-.258 1.939.016 7.2.016 7.2s.048 1.661.669 2.743c.327.585 2.395 3.085 2.395 3.085s2.81-.824 5.819 1.029c3.007 1.852 10.088 7.09 10.61 14.743 1.897 1.522 39.7 24.342 39.7 24.342s-.074-9.226 9.24-4.8c7.213 3.428 9.241 10.972 9.241 10.972z"/>
        <path fill="#510000" d="M7.187 21.728l.685 1.372v5.828l-.685-1.714z"/>
    </g>
</svg>
