<svg xmlns="http://www.w3.org/2000/svg" width="79" height="96" viewBox="0 0 79 96">
    <g fill="none" fill-rule="evenodd">
        <path fill="#85939A" d="M20.004 52.782c-3.618-2.083-6.556-.291-6.556 3.999s2.938 9.465 6.556 11.548c3.619 2.083 6.557.29 6.557-4s-2.938-9.464-6.557-11.547z"/>
        <path fill="#9BB6BD" d="M20.123 55.515c-2.328-1.34-4.217-.224-4.217 2.49 0 2.714 1.89 6.005 4.217 7.345 2.327 1.34 4.217.224 4.217-2.49 0-2.714-1.89-6.005-4.217-7.345z"/>
        <path fill="#BECED5" d="M20.23 57.432c-1.492-.86-2.704-.17-2.704 1.54 0 1.708 1.212 3.793 2.705 4.653 1.492.859 2.704.17 2.704-1.54 0-1.709-1.212-3.794-2.704-4.653z"/>
        <path fill="#5E7EB2" d="M24.2 62.828l2.348-.97s4.228-.277 5.423 5.384c.82 3.883-3.24 4.712-3.24 4.712s1.71-3.28-.316-6.081c-1.938-2.679-3.54-2.949-4.215-3.045z"/>
        <path fill="#98ABB7" d="M26.045 60.697l-.223 1.468s15.68 18.653 22.524 17.86c3.274.131 7.596-3.447 3.186-19.713-1.204-1.485-4.683-2.655-4.683-2.655l-20.804 3.04z"/>
        <path fill="#FFF" d="M48.48 64.51s-.176.57.107.845c.284.275 3.583 2.421 4.086 2.626.11-.69-.117-1.146-.117-1.146s-3.853-2.314-4.076-2.325z"/>
        <path fill="#CFDFEC" d="M48.684 64.536s3.14 2.143 4.169 2.529c.606-.996.148-2.265-.142-2.814-.29-.55-.827-.59-1.616-.58-.79.008-2.235.561-2.41.865"/>
        <path fill="#7899CF" d="M19.664 38.366s-4.137 1.058-6.677 6.802c2.59 3.834 11.964 12.75 22.088 13.641 4.496.361 6.926.441 9.171-3.84 2.246-4.281-3.7-4.321-4.409-4.731-.71-.41-12.784-14.291-20.173-11.872z"/>
        <path fill="#748EA1" d="M48.55 63.175s-.14 1.024.032 1.349c.341.413 2.015 1.293 2.015 1.293s.098-1.496-.447-1.998c-.544-.501-1.6-.644-1.6-.644"/>
        <path fill="#99B2E1" d="M11.582 47s2.49-6.498 12.816-1.077c10.325 5.42 11.24 18.804 11.24 18.804s-1.167.379-2.309.205c-.208-1.707-1.862-12.446-10.226-16.756C14.74 43.866 11.583 47 11.583 47z"/>
        <path fill="#7899CF" d="M35.58 64.932s-.223 1.934-.11 2.292c.113.358-.006.517.934.623.939.107 2.579.403 4.5-.44 1.923-.842 6.722-2.287 6.887-6.641-.933-1.38-1.338-1.437-1.338-1.437s-3.875 6.05-8.085 5.766c-2.144-.16-2.788-.163-2.788-.163z"/>
        <path fill="#5E7EB2" d="M35.636 64.816s5.05.948 7.444-.758c2.394-1.707 1.307-6.381.508-7.318-.798-.936-.96 3.903-9.41 1.56.968 2.734 1.123 3.575 1.458 6.516z"/>
        <path fill="#BED6EA" d="M18.726 38.354s-.196 1.772 2.74 3.109c2.936 1.337 2.067.485 2.067.485l-.401-1.242s-1.757.047-2.894-1.485c-1.136-1.532-1.512-.867-1.512-.867z"/>
        <path fill="#ECC7A8" d="M8.829 43.514s-1.195-.585-2.282 1.157c-.249 1.358.15 1.666.373 1.862.231.203-.286-1.16.488-1.88.774-.718 1.42-1.139 1.42-1.139z"/>
        <path fill="#A1BEC5" d="M18.007 38.198s-3.533 1.227-5.68 5.517c.248.88.735 1.693.735 1.693s1.172-3.239 5.635-6.501c-.186-.393-.69-.71-.69-.71z"/>
        <path fill="#ACC2CF" d="M10.379 44.886l.921.901 1.537-1.076-.499-.888z"/>
        <path fill="#99B2E1" d="M8.874 43.476s2.469.858 2.481 3.004c-.022.974-1.195 1.164-2.101 1.02-.906-.145-2.118-.695-2.374-1.02-.055-.666-.277-1.896 1.994-3.004z"/>
        <path fill="#6B7279" d="M72 95.499s3.753-.077 6.168-3.464c1.322-2.645 1.243-7.49-1.516-11.21-3.107-4.19-6.791-4.633-6.791-4.633l-5.002.939s7.42 2.989 8.694 7.875c1.274 4.885 1.294 8.036-1.554 10.493z"/>
        <path fill="#F54070" d="M16.635 37.176s-4.721.88-4.645 5.276c.058.657.423 1.44.423 1.44s1.763-3.867 5.438-5.57c-.86-.993-1.216-1.146-1.216-1.146z"/>
        <path fill="#BDD9EB" d="M14.995 36.434l1.027 4.214.614-.583-.99-3.207z"/>
        <path fill="#A0BAC0" d="M69.816 82.195s-4.36-4.239-6.404-.217c-1.028 2.033.305 6.496 2.31 8.508 2.004 2.013 5.577 3.872 6.837.613 1.672-4.325-2.743-8.904-2.743-8.904z"/>
        <path fill="#85939A" d="M68.23 78.225c-3.936-2.265-7.131-.446-7.131 4.06 0 4.506 3.195 10.003 7.131 12.27 3.936 2.265 7.131.446 7.131-4.06 0-4.506-3.195-10.004-7.13-12.27z"/>
        <path fill="#BFCFD5" d="M67.882 82.372c-1.845-1.062-3.344-.21-3.344 1.903s1.499 4.691 3.344 5.754c1.846 1.062 3.344.21 3.344-1.904 0-2.113-1.498-4.69-3.344-5.753z"/>
        <path fill="#A3B4C1" d="M64.958 76.635s.918 2.469 1.861 4.932c.986 2.574 1.943 5.1 1.207 5.237-.898.716-3.572-6.507-3.572-6.507l-1.542-3.33 2.046-.332"/>
        <path fill="#626B6E" d="M44.08 40.498l8.57 5.463s.985.692 1.73 2.009-.662 15.093-.662 15.093-1.118 1.535-2.743 1.389c-1.625-.147-2.668-1.541-2.668-1.541l-1.032-7.769-6.915-10.106 3.72-4.538z"/>
        <path fill="#A8BAC8" d="M62.729 77.096l4.055 8.735s.582 1.249 1.147.99c.53-.241-.046-1.529-.046-1.529l-3.374-8.465-1.782.269z"/>
        <path fill="#99B2E1" d="M53.222 45.447l-3.267 1.919 1.154.68 2.494-1.587z"/>
        <path fill="#8BB2F0" d="M51.676 40.762s1.926 7.413 2.205 8.35c2.782-.62 5.405-2.323 5.405-2.323s-1.562-6.451-1.94-7.05c-.378-.599-1.898-.29-2.935-.14-1.037.15-2.735 1.163-2.735 1.163"/>
        <path fill="#99B2E1" d="M27.923 64.47c-.688-.813-4.114-3.572-4.824.16-.842 4.427 2.58 7.608 4.082 7.738 1.5.13 3.374-.955 2.451-4.766-.224-.928-.974-2.264-1.709-3.132z"/>
        <path fill="#7198AA" d="M61.522 44.719s-8.445 1.41-10.24 7.855c-1.523 5.47-.008 8.242.517 10.473.525 2.23 2.88 14.944-2.649 16.853 4.118.655 5.676-4.184 4.713-10.166-.964-5.983-3.224-13.497-1.452-16.163 1.773-2.667 5.81-7.844 8.543-8.12.69-.201 1.153-.323.568-.732z"/>
        <path fill="#7899CF" d="M57.048 47.049s4.428-3.917 7.584-.595c3.155 3.32 5.962 10.677 5.215 17.724-.747 7.047-8.378 19.125-20.303 18.811-8.597-.226-16.802-11.062-21.175-17.655-2.026-3.054-4.26-2.519-4.26-2.519l1.737-.745s.99-.216 2.7 1.799c3.745 4.409 11.985 12.716 15.609 14.609 4.97 2.596 10.136 2.571 9.659-6.53-.477-9.1-2.93-12.797-1.905-17.423 1.025-4.626 5.14-7.476 5.14-7.476z"/>
        <path fill="#99B2E1" d="M66.437 65.954l-3.716 1.33s-.95.286-1.316 1.912c-.367 1.626-3.105 9.006-3.228 10.022.24.44.499.09.499.09s2.62-2.336 6.137-1.822c3.517.514 7.565 1.784 10.525.613 2.96-1.17 2.3-3.773-.781-6.467-3.08-2.695-4.588-3.086-5.726-3.644-.892-.458-1.141-.878-1.8-1.882-.314-.385-.594-.152-.594-.152z"/>
        <path fill="#D3E7FD" d="M63.398 69.181s-1.516.7-1.273 1.758c.26 1.133.903 1.525 2.658 2.317 1.755.792 2.802 1.151 3.893 2.181.961.908 1.324 1.742 1.904 1.408.58-.335.27-2.85-1.138-4.028-1.407-1.178-1.521-.664-3.29-1.964-1.512-1.11-1.171-1.229-1.838-1.69-.299-.208-.916.018-.916.018"/>
        <path fill="#99B2E1" d="M61.374 44.663s-6.537.812-6.771 3.554c1.402 2.447 5.305 10.015 6.898 17.097.21.805.697 1.512 1.28 1.427.584-.084 3.564-1.26 3.564-1.26s.954.064.924-3.128c-.03-3.192-.073-10.005-4.57-16.701-.56-.837-1.325-.99-1.325-.99z"/>
        <path fill="#AEC7CC" d="M64.968 49.466s-1.349-.799-3.296-.421c-1.946.378-2.15 3.317-1.618 4.666.3.758 1.938 2.331 4.198 1.36 2.26-.973.716-5.605.716-5.605z"/>
        <path fill="#E7EDE0" d="M63.749 49.356c-.199.013-2.917.193-2.662 3.36.129 1.61 1.674 2.241 2.462 2.278 1.21.057 2.963-1.02 2.772-3.075-.166-1.79-1.852-2.608-2.572-2.563z"/>
        <path fill="#99B2E1" d="M51.196 47.853s-2.377-1.557-3.594-.028c-.254 1.295.565 2.374 1.913 2.953.474.094 1.681-2.925 1.681-2.925zM61.126 40.168s1.689-1.34 3.672.284c1.154.97.818 2.937-.445 2.966-1.26.028-2.132-.291-2.668-.975-.536-.683-.704-1.292-.56-2.275z"/>
        <path fill="#F5DC5F" d="M64.356 40.187s-1.892.784-1.607 3.128c.925.293 2.35.414 2.752-.642.403-1.055-.211-2.353-1.145-2.486zM51.187 47.855s-2.058-.066-1.584 2.953c.827.14 2.322.155 2.453-1.058.156-1.436-.87-1.895-.87-1.895z"/>
        <path fill="#99B2E1" d="M58.216 43.051l3.11-1.992s1.036-.368.878.846c-.493.446-3.635 2.226-3.635 2.226l-.353-1.08"/>
        <path fill="#D3E2E6" d="M64.603 37.242s.964.167.414.75c-.137.126-.433.129-.535-.217-.145-.134-.541-.264-1.276.15-.734.413-1.067.18-1.153.11-.086-.07.127-.26.127-.26s.436.11 1.36-.382c.438-.189 1.063-.15 1.063-.15z"/>
        <path fill="#CADCDE" d="M61.131 36.503l1.855-1.062s.788.126.674 1.24a91.297 91.297 0 0 0-1.924 1.149l-.605-1.327z"/>
        <path fill="#E9C5AD" d="M45.476 26.896s-.149 3.016.208 3.642c.356.625 1.702 2.71 5.613 4.19 3.91 1.478 4.58 1.673 4.58 1.673s.246 1.576.612 1.87c.367.296 2.929 2.01 3.427 1.905.498-.104.375-.488.048-.873s-1.765-.307-1.538-1.498c.04-.211.826-.162 1.058.061.232.223 1.227 1.817 1.923 1.801 1.128-.025 1.455-2.808.786-3.721-.668-.913-4.8-1.755-4.8-1.755s-7.51-4.889-8.002-5.508c-.493-.619-.87-1.677-.943-2.277-1.01.01-2.972.49-2.972.49z"/>
        <path fill="#7899CF" d="M54.178 39.46c-.84.22-2.8 1.037-2.387 1.557.664.833 6.324-.496 5.455-1.475-.497-.56-2.22-.303-3.068-.082z"/>
        <path fill="#A7C9E4" d="M63.408 32.22l-4.22 5.482.29.227 4.152-5.54z"/>
        <path fill="#7EACBF" d="M58.967 37.586s-.857-.17-.615.924c.207.574 1.09 1.356 1.607.732.518-.623-.434-1.562-.992-1.656z"/>
        <path fill="#A6BAC8" d="M58.798 38.07s-1.623 1.094-1.049 3.297c.583 2.237-.432 2.616-.758 2.758-.534.233-1.57.451-2.978-1.396-1.372-1.8-3.487-.896-3.921-.585.321.47.475.928.43 1.281.611-.294 1.499-1.369 2.696.047s2.279 2.496 4.487 1.555c2.208-.94.913-3.558.986-4.652.073-1.093.445-1.133.71-1.45.06-.263.101-.689-.603-.855z"/>
        <path fill="#CCAE2B" d="M37.118 30.555l-15.696 9.823-.095-18.514 15.74-8.906z"/>
        <path fill="#FFD833" d="M37.031 12.718L15.571.555 0 9.846l21.475 11.982zM21.467 40.43L0 27.897V9.847l21.408 11.969z"/>
        <path fill="#E6C430" d="M0 9.846v4.103l21.472 12.209-.015-4.412z"/>
        <path fill="#E6C430" d="M37.031 12.718v4.103l-15.595 9.106.035-4.176z"/>
        <path fill="#849299" d="M39.552 51.7s-4.888 1.105-9.919-2.654c-5.03-3.76-6.978-7.21-7.06-9.433 1.252-.827 2.746-1.679 2.746-1.679s3.077 10.079 9.847 11.01c1.258.28 2.584 1.315 2.584 1.315l1.802 1.442z"/>
        <path fill="#94A2AA" d="M27.954 35.251s-4.417 2.026-2.391 6.137 6.277 8.036 10.795 7.95c4.517-.087-2.756-9.484-2.756-9.484s-2.35-5.522-5.648-4.603z"/>
        <path fill="#7899CF" d="M24.43 60.42s-3.144 1.776-6.938-.514c-3.793-2.29-7.488-5.349-7.488-5.349s1.06-3.193 2.806-2.653c1.747.54 11.79 8.485 11.62 8.515"/>
        <path fill="#FFF" d="M38.919 70.59s-.296 1.018.59 1.557c.886.539 4.32 2.28 5.607 2.887.988.466 4.12 1.7 5.693-.139.118-.408.211-.759-.059-.924-.472.411-1.853 1.109-3.335.85-1.483-.259-8.468-4.217-8.496-4.231z"/>
        <path fill="#CFDFEC" d="M39.474 69.171l-.187 1.67s4.478 3.048 7.68 4.055c3.116.98 4.497-1.475 2.683-2.681-1.815-1.206-3.336-2.06-3.937-3.301-.6-1.242-6.24.257-6.24.257z"/>
        <path fill="#748EA1" d="M50.26 72.555s-2.121.311-3.433 2.218c1.222.423 2.39.575 3.813-.18.597-.317.31-1.494-.38-2.038zM39.567 68.895s2.183.369 2.12 3.414c-.968-.42-2.227-1.076-2.628-1.617.155-1.831.597-1.81.508-1.797"/>
        <path fill="#6A7780" d="M29.267 41.914s-.679 1.91 2.99 4.75c3.668 2.838 7.33 5.166 8.365 7.2 1.035 2.035-.513 8.508-.802 11.389-.29 2.881-1.093 4.142.3 4.601 1.395.46 4.488.74 5.772-.502-.088-.972-.308-1.173-.151-2.665s1.433-9.501 1.791-11.366c.358-1.865 1.627-2.81-5.096-9.706-6.724-6.898-13.169-3.701-13.169-3.701z"/>
        <path fill="#009F35" d="M43.747 15.362s2.987-.78 3.689 3.014c.702 3.795 1.211 7.93 1.211 7.93s-.96 1.041-2.915.956c-.196-2.358-1.985-11.9-1.985-11.9z"/>
        <path fill="#4BC04E" d="M39.074 15.166s2.609-1.159 4.401-.514c1.793.646 3.442 1.626 3.12 6.469-.322 4.842-1.724 20.652-2.098 21.405-.495.765-5.224 4.334-9.336 3.522-4.112-.813-6.618-2.799-6.647-4.56-.03-1.761 1.097-9.614 1.433-14.71.335-5.096-.92-7.48 5.711-10.428 2.628-.968 3.416-1.184 3.416-1.184z"/>
        <path fill="#CADCDE" d="M48.697 42.52l-4.303 2.352s.757.12.751 1.287c.766-.344 4.361-2.137 4.361-2.137s.112-1.526-.809-1.502z"/>
        <path fill="#E9C5AD" d="M35.604 30.114s-2.806.87-4.783-.384c-.085 1.225.064 4.597.49 5.62.427 1.024 2.183 2.784 3.506 3.546s8.778 4.605 8.778 4.605 2.124 2.225 3.346 2.281c1.222.056 2.503-.497 2.434-1.3-.068-.803-.118-1.66-2.164-2.594-2.045-.935-7.567-5.094-8.725-5.952-1.158-.858-2.586-1.783-2.657-2.632-.071-.85-.225-3.19-.225-3.19z"/>
        <path fill="#009F35" d="M33.359 19.545s-1.411-.997-2.609.636c-1.197 1.632-1.702 9.07-1.702 9.07s2.914 2.11 5.173 1.628c2.258-.482 1.731-1.15 1.669-3.924-.063-2.774-.11-5.826-2.531-7.41"/>
        <path fill="#E9C5AD" d="M37.522 10.766s.714 3.718-.882 4.833c-1.595 1.114-1.845 1.09-1.845 1.09s1.387.676 3.635 3.381c1.72 2.07 4.188.513 4.355-.638.267-1.843-.033-2.742-.04-3.565-.008-.823-5.223-5.101-5.223-5.101z"/>
        <path fill="#FECFB7" d="M47.761 9.605s-1.225 5.278-2.887 6.823c-1.32 1.229-2.339.863-3.12.762-1.582-.204-2.95-2.236-3.516-3.248-.551-.986-.043-3.219-.043-3.219l2.282-4.188 7.284 3.07z"/>
        <path fill="#510000" d="M42.91 8.647s-1.274.18-1.511 1.587c-.237 1.41-1.175 1.43-1.418 1.428.07-.492.3-1.432.245-2.18-.054-.748.76-2.063 1.23-1.839a5.62 5.62 0 0 1 1.454 1.004z"/>
        <path fill="#009F35" d="M40.67 7.88s4.306 2.446 8.348 2.16c1.796-.098.81-1.63.159-1.978-.987.015-8.507-.182-8.507-.182"/>
        <path fill="#4BC04E" d="M41.672 8.123s7.027.383 7.511.05c.16-.711.377-4.09-2.517-6.631C43.772-.998 40.147.26 39.17.717c-.976.457-3.945 2.764-3.684 5.956.26 3.193 1.853 5.47 3.141 5.817.667.2 1.702-2.751 1.86-3.455.208-.922.78-.903 1.184-.912z"/>
        <path fill="#A7C9E4" d="M50.326 39.676l2.038 1.257s.354.154.305 1.188c-.195.043-.3-.154-.3-.154s.087-.58-.238-.872c-.4-.358-1.9-1.024-1.9-1.024l.095-.395z"/>
        <path fill="#8BB2F0" d="M48.879 36.845s-2.369.916-2.164 3.673c.104 1.4 1.372 1.351 1.663 1.323.734-.07 2.351-1.164 2.276-3.362-.07-2.006-1.775-1.634-1.775-1.634z"/>
        <path fill="#D3E7FD" d="M11.624 46.907s-1.897 2.384-1.158 3.276c.739.892 5.523 3.363 10.353 7.322 4.83 3.96 7 4.63 7.754 5.368.752.739 1.916 2.332 4.905 2.045-.323-1.783-1.111-11.691-10.467-16.788-7.91-4.31-11.387-1.223-11.387-1.223zM27.381 65.196c-.613-.72-3.054-2.799-3.576.186-.487 2.786 2.049 5.72 3.19 5.818 1.14.099 2.562-.598 1.756-3.603-.168-.624-.697-1.613-1.37-2.401z"/>
        <path fill="#8DBDE2" d="M48.402 42.395l1-.583s1.3.205 1.13 1.823c-.68.474-1.063.577-1.063.577s.181-1.26-1.067-1.817z"/>
        <path fill="#8BB2F0" d="M64.542 29.283s-2.119.627-2.09 3.652c.007.62.707 1.523 1.962 1.11.727-.24 2.224-1.542 2.156-3.143-.089-2.115-2.028-1.619-2.028-1.619z"/>
    </g>
</svg>
