<svg xmlns="http://www.w3.org/2000/svg" xmlns:xlink="http://www.w3.org/1999/xlink" width="128" height="114" viewBox="0 0 128 114">
    <defs>
        <path id="a" d="M24.335 52.411l40.08 23.469 25.009 13.976s4.093-14.28-.857-20.033c-4.948-5.752-9.706-10.561-9.706-10.561s-2.026-3.671-7.422-12.845c-5.396-9.174-7.36-12.44-10.895-14.272C57.01 30.314 4.637.175 4.637.175s-2.485.32-3.14 13.416C.84 26.687.069 34.143.069 34.143l24.266 18.268z"/>
        <path id="c" d="M.926 15.019S25.372 1.125 27.76.176c.534-.276.777-.693 2.569 2.854 1.792 3.548 7.422 13.416 7.422 13.416s.633 1.508-.57 2.569c-1.204 1.06-7.121 5.48-9.992 7.136-2.871 1.656-15.54 7.83-15.416 7.707.124-.123-1.852 1.626-3.711-1.713C6.204 28.805.64 18.444.64 18.444s-1.609-2.427.286-3.425z"/>
    </defs>
    <g fill="none" fill-rule="evenodd">
        <path fill="#D5E4D4" d="M125.622 93.146c2.336-1.349 2.59-3.392.567-4.56L43.31 40.742c-2.023-1.168-5.562-1.02-7.899.328L2.455 60.095c-2.337 1.348-2.59 3.392-.567 4.56l82.878 47.843c2.024 1.168 5.563 1.022 7.9-.327l32.956-19.025z"/>
        <path fill="#4BC04E" d="M127.213 77.085s-.438-5.135-2.284-7.537c-1.845-2.402-12.56-13.987-12.56-13.987l-10.564-19.695s-1.55-2.35-2.854-3.14C97.822 32.044 54.899 7.438 43.294.786a5.746 5.746 0 0 0-5.727.005L7.883 17.883l56.478 33.111s3.545 1.672 9.732 13.13c6.187 11.459 5.812 12.878 17.15 23.977.865 2.885 1.427 4.282 1.427 4.282l.571 3.71 33.972-19.008z"/>
        <path fill="#009F35" d="M27.867 70.119l40.08 23.468 25.009 13.977s4.092-14.28-.857-20.034c-4.949-5.752-9.706-10.56-9.706-10.56s-2.026-3.672-7.422-12.846c-5.397-9.173-7.36-12.44-10.895-14.271-3.535-1.832-55.907-31.97-55.907-31.97s-2.485.32-3.14 13.416C4.373 44.395 3.6 51.851 3.6 51.851l24.266 18.268z"/>
        <g transform="translate(3.532 17.708)">
            <mask id="b" fill="#fff">
                <use xlink:href="#a"/>
            </mask>
            <path fill="#E6C430" d="M-1.608 5.04l17.401 25.342L92.533 74 88.938 94.77-9.082 46.32l5.509-39.66z" mask="url(#b)"/>
            <path fill="#062" d="M-1.894 17.31l17.401 25.343 76.74 43.616-3.596 20.772L-9.368 58.59l5.508-39.66z" mask="url(#b)"/>
        </g>
        <path fill="#2C272B" d="M12.451 60.985s.129-9.902 7.708-5.63c-5.211 3.628-7.708 5.63-7.708 5.63zM68.566 94.07s.777-10.366 8.076-5.73c-3.535 2.773-5.488 5.242-6.502 6.122-.425.369-1.574-.393-1.574-.393z"/>
        <path fill="#2D3739" d="M71.26 90.596l5.372-2.78s11.268 3.488 9.472 15.12c-4.274 3.44-5.129 3.392-5.129 3.392s5.28-3.569-.397-11.578c-4.193-5.914-9.319-4.154-9.319-4.154z"/>
        <path fill="#414B4E" d="M76.632 91.02c3.753 2.166 6.8 7.175 6.8 11.178 0 4.003-3.047 5.493-6.8 3.327-3.753-2.167-6.8-7.176-6.8-11.178 0-4.003 3.047-5.494 6.8-3.327z"/>
        <path fill="#85939A" d="M76.632 93.15c2.65 1.53 4.802 5.068 4.802 7.894 0 2.827-2.152 3.88-4.802 2.35-2.65-1.53-4.802-5.067-4.802-7.894 0-2.826 2.152-3.88 4.802-2.35z"/>
        <path fill="#EDECE8" d="M76.632 94.673c1.863 1.075 3.375 3.56 3.375 5.547 0 1.986-1.512 2.726-3.375 1.651-1.862-1.075-3.374-3.56-3.374-5.547 0-1.986 1.512-2.726 3.374-1.65z"/>
        <path fill="#2D3739" d="M14.164 57.77l5.373-2.78s11.267 3.488 9.472 15.12c-4.275 3.44-4.895 3.327-4.895 3.327s5.046-3.503-.632-11.512c-4.193-5.914-9.318-4.155-9.318-4.155z"/>
        <path fill="#414B4E" d="M19.537 58.194c3.753 2.167 6.8 7.175 6.8 11.178 0 4.003-3.047 5.494-6.8 3.327-3.753-2.166-6.8-7.175-6.8-11.178 0-4.003 3.047-5.494 6.8-3.327z"/>
        <path fill="#85939A" d="M19.537 60.325c2.65 1.53 4.802 5.067 4.802 7.894 0 2.826-2.152 3.879-4.802 2.349-2.65-1.53-4.802-5.067-4.802-7.893 0-2.827 2.151-3.88 4.802-2.35z"/>
        <path fill="#EDECE8" d="M19.537 61.848c1.862 1.075 3.374 3.56 3.374 5.547 0 1.986-1.512 2.726-3.374 1.65-1.863-1.075-3.375-3.56-3.375-5.546 0-1.987 1.512-2.726 3.375-1.651z"/>
        <path fill="#363F46" d="M27.252 69.216l-.031.586 2.915 1.627s.517-12.048-8.835-17.58c-7.786-4.606-8.86.82-9.992.856-1.132.036-7.422-3.425-7.422-3.425v-2.284s-1.61.466-1.713 1.713c-.104 1.246 0 3.71 0 3.71s-.274 1.378 1.998 2.57c2.272 1.191 7.708 4.281 7.708 4.281s.958.365 1.142-1.998c.184-2.363 2.1-6.144 5.995-4.282 3.894 1.863 7.996 6.064 8.235 14.226z"/>
        <path fill="#5EDF62" d="M104.839 86.31s-7.118-3.2-9.613-7.169c3.992 2.815 10.175 6.065 10.282 6.218.107.153-.67.95-.67.95z"/>
        <path fill="#009F35" d="M119.16 79.06s-2.257-7.086-5.692-9.849c2.213 4.075 4.611 10.277 4.742 10.394.132.116.95-.544.95-.544z"/>
        <path fill="#363F46" d="M67.834 93.525s1.481 1.231 1.712.856c.231-.375.267-8.804 5.425-6.85 5.157 1.953 8.693 7.781 9.135 11.988.442 4.207.57 3.971.57 3.971l6.852 3.736s1.672 1.058 4.568-.571c2.895-1.63 28.903-16.28 29.404-16.841.501-.561 2.196-1.496 2.237-3.71.042-2.215 0-7.137 0-7.137s-.004-.983-1.095-1.712c-.533.825-33.115 19.695-33.115 19.695s-1.77.822-3.426 0c-1.655-.822-5.139-2.854-5.139-2.854s-2.616-5.916-7.993-8.564c-5.377-2.647-9.065-.026-9.135 7.993"/>
        <path fill="#918F94" d="M118.078 84.962v4.281l-11.99 6.85v-4.566z"/>
        <path fill="#363F46" d="M99.236 88.387l21.696-12.56-.285 5.71-18.842 10.905z"/>
        <path fill="#241E22" d="M96.096 103.515L125.5 86.39s.355 1.922-1.142 2.854c-1.497.933-25.407 14.843-25.407 14.843s-1.504.485-2.855-.57z"/>
        <path fill="#2C272B" d="M102.376 91.812l17.415-9.99v-1.427L101.805 90.67zM100.378 88.958l.856.856 18.842-10.847V77.54z"/>
        <path fill="#F6F5E9" d="M124.93 69.548s2.681 1.604 2.51 6.898c-.029.864-.513 1.094-.513 1.094l-7.149 4.33s-.288-4.019 1.097-6.821c1.796-3.638 4.054-5.501 4.054-5.501zM102.432 91.838s-6.621 4.01-8.684 5.043c-.767.384-2.18.6-2.764.272-.084-.972-.85-8.694 2.018-8.868 2.847-.172 4.285-.197 5.75-.244.685-.022 1.537.383 3.68 3.797z"/>
        <path fill="#626B6E" d="M73.829 54.42s24.446-13.894 26.835-14.843c.534-.277.777-.693 2.569 2.854 1.792 3.548 7.422 13.416 7.422 13.416s.633 1.508-.57 2.569c-1.204 1.06-7.121 5.48-9.992 7.136-2.871 1.656-15.54 7.83-15.416 7.707.124-.123-1.852 1.626-3.711-1.713-1.86-3.34-7.423-13.701-7.423-13.701s-1.609-2.427.286-3.425z"/>
        <g transform="translate(72.903 39.4)">
            <mask id="d" fill="#fff">
                <use xlink:href="#c"/>
            </mask>
            <path fill="#70787B" d="M-1.618 11.516l30.237 20.222.146-3.128L9.895 5.288z" mask="url(#d)"/>
        </g>
        <path fill="#626B6E" d="M59.02 49.924l6.815 4.21s2.234 1.17 4.568 5.994c2.334 4.825 7.503 14.725 7.503 14.725s.99 1.687.488 2.79c-.335.734-5.734-1.915-8.8-3.491a4.471 4.471 0 0 1-2.325-3.042c-.254-1.254-.848-2.758-2.155-3.397-1.78-.869-6.13-3.589-6.13-3.589s-1.207-.405-1.142-3.14c.064-2.733.035-9.918.035-9.918s0-1.32 1.142-1.142z"/>
        <path fill="#2C272B" d="M71.292 75.63l-.38-.128a.822.822 0 0 1-.561-.77l-.05-4.595a.57.57 0 0 1 .293-.504l2.443-1.362a.751.751 0 0 1 .681-.025l.269.125-2.83 1.53a.584.584 0 0 0-.305.564l.44 5.164z"/>
        <path fill="#414B4E" d="M75.161 69.761s3.14 4.935 3.462 6.565c.272 1.375-.261 1.785-1.178 1.427-.917-.358-2.284-1.141-2.284-1.141V69.76z"/>
        <path fill="#414B4E" d="M76.88 76.326l.285 1.257-5.871-2a.713.713 0 0 1-.483-.674l-.009-4.509a.6.6 0 0 1 .319-.53l2.814-1.492a.057.057 0 0 1 .057.002c.017.01.027.029.027.049v5.9l2.86 1.997z"/>
        <path fill="#2C2D31" d="M58.613 65.795a.179.179 0 0 0-.268.16l.043 1.214c.014.392.229.749.569.945l2.82 1.623a.279.279 0 0 0 .419-.25l-.029-1.164a.872.872 0 0 0-.436-.734l-3.118-1.794z"/>
        <path fill="#FFF" d="M13.24 27.505l-.646.327a2.67 2.67 0 0 0-1.001-1.012c-.909-.525-1.438-.18-1.43.87a2.931 2.931 0 0 0 1.456 2.536c.428.247.764.289.994.139l.657 1.08c-.396.151-.95.062-1.644-.338-1.558-.9-2.446-2.546-2.457-3.991-.011-1.446.86-2.077 2.417-1.178a4.94 4.94 0 0 1 1.654 1.567zm1.56.266l.027 3.643c.002.274.075.507.211.707.14.202.344.37.604.515l.006.769c-.51-.264-.948-.598-1.262-1.014a2.526 2.526 0 0 1-.523-1.534l-.028-3.643.964.557zm1.804 1.101c.287.166.521.526.523.806.002.28-.228.372-.515.206-.287-.166-.522-.527-.524-.806-.002-.28.229-.372.516-.206zm.494 1.753l.027 3.587-.965-.557-.027-3.587.965.557zm3.604 2.424l-.535.32a1.607 1.607 0 0 0-.607-.594c-.56-.323-.929-.138-.924.524.005.672.39 1.281.94 1.599.234.135.47.192.615.107l.544.942c-.291.104-.726.014-1.22-.271-1.179-.68-1.836-1.907-1.844-2.934-.007-1.017.625-1.51 1.815-.823.524.302.943.712 1.216 1.13zm1.495-.999l.021 2.802 1.073-.652 1.09.63-1.23.765 1.433 2.923-1.13-.652-.88-1.875-.345.185.007.987-.965-.557-.039-5.113.965.557zm7.978 4.697l.007.87-2.278-1.315.009 1.135L30 38.642l.006.871-2.087-1.205.01 1.275 2.277 1.315.007.87-3.272-1.888-.038-5.022 3.271 1.889zm3.991 5.012l.018 2.302-.965-.557-.016-2.086c-.004-.555-.34-.962-.711-1.176-.243-.14-.455-.19-.78-.015l.019 2.417-.965-.557-.028-3.587.85.491.044.467c.326-.127.642-.164 1.116.11.673.388 1.41 1.227 1.418 2.191zm1.855-1.154l.008.95.754.435.005.766-.753-.436.01 1.351c.002.26.08.484.215.68.143.207.351.383.603.538l.006.77c-.5-.273-.941-.614-1.26-1.035a2.48 2.48 0 0 1-.529-1.51l-.01-1.35-.522-.302-.006-.766.522.301-.007-.949.964.557zm3.293 2.756l.036.02.005.825-.179-.103c-.238-.138-.543-.22-.802.029l.018 2.358-.965-.557-.028-3.587.85.49.051.538c.255-.2.585-.253 1.014-.013zm3.818 3.99a2.18 2.18 0 0 1-.03.384l-2.549-1.471c.089.536.414 1.003.872 1.287.342.222.73.334 1.05.313l.413.744c-.335.155-.827.081-1.457-.282-1.184-.684-1.828-1.899-1.836-2.93-.007-1.021.608-1.518 1.793-.834 1.138.657 1.736 1.74 1.744 2.789zm-2.575-1.703l-.002.038 1.69.975a1.172 1.172 0 0 0-.012-.217c-.054-.469-.348-.827-.813-1.095-.543-.314-.825-.125-.863.299zm4.592.999c.316.182.603.404.84.658l1.06.612.004.598-.554-.262c.12.2.193.426.195.654.007.982-.61 1.017-1.524.49a2.854 2.854 0 0 1-.463-.332c-.155.01-.213.109-.186.24.025.12.12.254.283.373l.457.264c.754.428 1.824 1.138 1.833 2.228.007.973-.984.614-1.815.126-.831-.473-1.825-1.26-1.833-2.232-.004-.482.209-.636.513-.624a1.112 1.112 0 0 1-.284-.494c-.057-.28.06-.502.35-.557a2.206 2.206 0 0 1-.4-1.254c-.007-.93.639-1 1.524-.488zm.006.785c-.418-.242-.654-.207-.65.211.002.425.228.72.659.968.43.248.654.205.65-.211-.003-.418-.241-.727-.66-.968zm.102 3.259c-.597-.353-.858-.438-.855-.076.002.324.32.609.862.92.541.314.859.397.856.073-.003-.363-.265-.58-.863-.917zm5.331.557l.018 2.294-.85-.49-.045-.467c-.264.18-.629.145-1.023-.06-.679-.343-1.377-1.186-1.383-2.013-.007-.826.671-.803 1.374-.42.333.182.674.45.946.74l-.002-.163c-.016-.457-.416-.877-.844-1.117-.374-.207-.792-.31-1.048-.309l-.232-.746c.432-.001.972.156 1.481.45.834.482 1.601 1.346 1.608 2.301zm-1.676-.394c-.377-.216-.71-.252-.707.116.003.363.346.738.717.931.266.141.52.19.714.059l-.004-.499a2.733 2.733 0 0 0-.72-.607zm5.006 1.293l-.259.505a5.075 5.075 0 0 0-1.016-.832c-.321-.187-.586-.233-.584.009.001.233.2.402.442.588.853.648 1.546 1.118 1.553 2.065.006.769-.778.654-1.543.2-.552-.319-1.148-.838-1.487-1.344l.264-.498c.222.31.728.806 1.217 1.092.352.206.608.249.606-.028-.003-.3-.28-.488-.592-.728-.848-.64-1.406-1.081-1.412-1.89-.006-.754.743-.672 1.53-.22.462.264.937.656 1.28 1.081z"/>
    </g>
</svg>
