<svg width="152" height="45" viewBox="0 0 152 45" fill="none" xmlns="http://www.w3.org/2000/svg">
<mask id="mask0" mask-type="alpha" maskUnits="userSpaceOnUse" x="0" y="0" width="152" height="45">
<path fill-rule="evenodd" clip-rule="evenodd" d="M76.0001 0H152V45H76.0001H0.000244141V0H76.0001Z" fill="white"/>
</mask>
<g mask="url(#mask0)">
<path fill-rule="evenodd" clip-rule="evenodd" d="M146.592 45H5.32475C2.38946 45 0.000244141 42.606 0.000244141 39.6754V5.31675C0.000244141 2.385 2.38946 0 5.32475 0H146.592C149.525 0 152 2.385 152 5.31675V39.6754C152 42.606 149.525 45 146.592 45Z" fill="#A6A6A6"/>
</g>
<path fill-rule="evenodd" clip-rule="evenodd" d="M150.91 39.676C150.91 42.0565 148.98 43.9848 146.593 43.9848H5.32463C2.93879 43.9848 1.0022 42.0565 1.0022 39.676V5.3163C1.0022 2.9358 2.93879 1.00192 5.32463 1.00192H146.592C148.98 1.00192 150.909 2.9358 150.909 5.3163L150.91 39.676Z" fill="black"/>
<path fill-rule="evenodd" clip-rule="evenodd" d="M53.9949 16.3599L53.0489 13.9289H49.9359L49.0009 16.3599H47.9999L51.0689 8.4729H51.9599L55.0179 16.3599H53.9949ZM52.7519 13.049L51.8719 10.673C51.8499 10.6143 51.8132 10.508 51.7619 10.354C51.7105 10.2 51.661 10.0405 51.6134 9.8755C51.5657 9.7105 51.5272 9.584 51.4979 9.496C51.4392 9.72334 51.3787 9.94517 51.3164 10.1615C51.254 10.3778 51.2009 10.5483 51.1569 10.673L50.2659 13.049H52.7519ZM57.2619 16.3599L55.0289 10.4639H56.0629L57.3169 13.9399C57.3756 14.1012 57.4379 14.2809 57.5039 14.4789C57.5699 14.6769 57.6286 14.8675 57.6799 15.0509C57.7313 15.2342 57.7679 15.3845 57.7899 15.5019H57.8339C57.8559 15.3845 57.8963 15.2324 57.9549 15.0454C58.0136 14.8584 58.0759 14.6677 58.1419 14.4734C58.2079 14.279 58.2703 14.1012 58.3289 13.9399L59.5829 10.4639H60.6169L58.3729 16.3599H57.2619ZM63.7849 10.365C64.5036 10.365 65.0353 10.5227 65.3799 10.838C65.7246 11.1533 65.8969 11.6557 65.8969 12.345V16.36H65.1929L65.0059 15.524H64.9619C64.7053 15.8467 64.4339 16.085 64.1479 16.239C63.8619 16.393 63.4733 16.47 62.9819 16.47C62.4466 16.47 62.0029 16.3288 61.6509 16.0465C61.2989 15.7642 61.1229 15.3223 61.1229 14.721C61.1229 14.1343 61.3539 13.6815 61.8159 13.3625C62.2779 13.0435 62.9893 12.8693 63.9499 12.84L64.9509 12.807V12.455C64.9509 11.9637 64.8446 11.6227 64.6319 11.432C64.4193 11.2413 64.1186 11.146 63.7299 11.146C63.4219 11.146 63.1286 11.1918 62.8499 11.2835C62.5713 11.3752 62.3109 11.4797 62.0689 11.597L61.7719 10.871C62.0286 10.7317 62.3329 10.6125 62.6849 10.5135C63.0369 10.4145 63.4036 10.365 63.7849 10.365ZM64.9399 13.478L64.0709 13.511C63.3376 13.5403 62.8297 13.6577 62.5474 13.863C62.2651 14.0683 62.1239 14.358 62.1239 14.732C62.1239 15.062 62.2247 15.304 62.4264 15.458C62.6281 15.612 62.8866 15.689 63.2019 15.689C63.6932 15.689 64.1057 15.5515 64.4394 15.2765C64.7731 15.0015 64.9399 14.578 64.9399 14.006V13.478ZM68.2179 8.25293C68.3645 8.25293 68.4947 8.30243 68.6084 8.40143C68.722 8.50043 68.7789 8.65626 68.7789 8.86893C68.7789 9.0816 68.722 9.23743 68.6084 9.33643C68.4947 9.43543 68.3645 9.48493 68.2179 9.48493C68.0565 9.48493 67.9209 9.43543 67.8109 9.33643C67.7009 9.23743 67.6459 9.0816 67.6459 8.86893C67.6459 8.65626 67.7009 8.50043 67.8109 8.40143C67.9209 8.30243 68.0565 8.25293 68.2179 8.25293ZM68.6909 10.4639V16.3599H67.7229V10.4639H68.6909ZM71.5289 16.36H70.5609V8H71.5289V16.36ZM75.6318 10.365C76.3505 10.365 76.8822 10.5227 77.2268 10.838C77.5715 11.1533 77.7438 11.6557 77.7438 12.345V16.36H77.0398L76.8528 15.524H76.8088C76.5522 15.8467 76.2808 16.085 75.9948 16.239C75.7088 16.393 75.3202 16.47 74.8288 16.47C74.2935 16.47 73.8498 16.3288 73.4978 16.0465C73.1458 15.7642 72.9698 15.3223 72.9698 14.721C72.9698 14.1343 73.2008 13.6815 73.6628 13.3625C74.1249 13.0435 74.8362 12.8693 75.7968 12.84L76.7978 12.807V12.455C76.7978 11.9637 76.6915 11.6227 76.4788 11.432C76.2662 11.2413 75.9655 11.146 75.5768 11.146C75.2688 11.146 74.9755 11.1918 74.6968 11.2835C74.4182 11.3752 74.1579 11.4797 73.9158 11.597L73.6188 10.871C73.8755 10.7317 74.1798 10.6125 74.5318 10.5135C74.8839 10.4145 75.2505 10.365 75.6318 10.365ZM76.7868 13.478L75.9178 13.511C75.1845 13.5403 74.6767 13.6577 74.3943 13.863C74.112 14.0683 73.9708 14.358 73.9708 14.732C73.9708 15.062 74.0717 15.304 74.2733 15.458C74.475 15.612 74.7335 15.689 75.0488 15.689C75.5402 15.689 75.9527 15.5515 76.2863 15.2765C76.62 15.0015 76.7868 14.578 76.7868 14.006V13.478ZM80.5378 8V10.035C80.5378 10.2843 80.5323 10.5172 80.5213 10.7335C80.5103 10.9498 80.4975 11.1203 80.4828 11.245H80.5378C80.7065 10.9957 80.9375 10.7867 81.2308 10.618C81.5242 10.4493 81.9018 10.365 82.3638 10.365C83.0972 10.365 83.6857 10.6198 84.1293 11.1295C84.573 11.6392 84.7948 12.4 84.7948 13.412C84.7948 14.424 84.5712 15.1867 84.1238 15.7C83.6765 16.2133 83.0898 16.47 82.3638 16.47C81.9018 16.47 81.5242 16.3857 81.2308 16.217C80.9375 16.0483 80.7065 15.8467 80.5378 15.612H80.4608L80.2628 16.36H79.5698V8H80.5378ZM82.1988 11.168C81.5682 11.168 81.1337 11.3476 80.8953 11.707C80.657 12.0663 80.5378 12.6236 80.5378 13.379V13.423C80.5378 14.149 80.657 14.7045 80.8953 15.0895C81.1337 15.4745 81.5755 15.667 82.2208 15.667C82.7488 15.667 83.143 15.4726 83.4033 15.084C83.6637 14.6953 83.7938 14.1343 83.7938 13.401C83.7938 11.9123 83.2622 11.168 82.1988 11.168ZM87.303 16.36H86.335V8H87.303V16.36ZM91.4499 10.354C91.9486 10.354 92.3812 10.464 92.7479 10.684C93.1146 10.904 93.3951 11.2138 93.5894 11.6135C93.7837 12.0132 93.8809 12.4807 93.8809 13.016V13.599H89.8439C89.8586 14.2663 90.0291 14.7742 90.3554 15.1225C90.6817 15.4708 91.1382 15.645 91.7249 15.645C92.0989 15.645 92.4307 15.6102 92.7204 15.5405C93.0101 15.4708 93.3089 15.37 93.6169 15.238V16.085C93.3162 16.217 93.0192 16.3142 92.7259 16.3765C92.4326 16.4388 92.0842 16.47 91.6809 16.47C91.1162 16.47 90.6212 16.3563 90.1959 16.129C89.7706 15.9017 89.4387 15.5643 89.2004 15.117C88.9621 14.6697 88.8429 14.116 88.8429 13.456C88.8429 12.8107 88.9511 12.257 89.1674 11.795C89.3837 11.333 89.6881 10.9773 90.0804 10.728C90.4727 10.4787 90.9292 10.354 91.4499 10.354ZM91.439 11.146C90.977 11.146 90.6121 11.2945 90.3445 11.5915C90.0768 11.8885 89.9173 12.301 89.866 12.829H92.869C92.8616 12.3303 92.7443 11.9252 92.517 11.6135C92.2896 11.3018 91.9303 11.146 91.439 11.146ZM103.363 13.401C103.363 14.3763 103.115 15.1317 102.62 15.667C102.125 16.2023 101.456 16.47 100.613 16.47C100.092 16.47 99.6284 16.3508 99.2214 16.1125C98.8144 15.8742 98.4935 15.5258 98.2589 15.0675C98.0242 14.6092 97.9069 14.0537 97.9069 13.401C97.9069 12.4257 98.1507 11.674 98.6384 11.146C99.126 10.618 99.7952 10.354 100.646 10.354C101.174 10.354 101.643 10.4732 102.054 10.7115C102.465 10.9498 102.785 11.2945 103.016 11.7455C103.247 12.1965 103.363 12.7483 103.363 13.401ZM98.9078 13.401C98.9078 14.0977 99.0453 14.6495 99.3203 15.0565C99.5953 15.4635 100.034 15.667 100.635 15.667C101.229 15.667 101.665 15.4635 101.944 15.0565C102.223 14.6495 102.362 14.0977 102.362 13.401C102.362 12.7043 102.223 12.158 101.944 11.762C101.665 11.366 101.225 11.168 100.624 11.168C100.022 11.168 99.5862 11.366 99.3148 11.762C99.0435 12.158 98.9078 12.7043 98.9078 13.401ZM107.73 10.354C108.434 10.354 108.966 10.5263 109.325 10.871C109.684 11.2157 109.864 11.7657 109.864 12.521V16.36H108.907V12.587C108.907 11.641 108.467 11.168 107.587 11.168C106.934 11.168 106.483 11.3513 106.234 11.718C105.985 12.0847 105.86 12.6127 105.86 13.302V16.36H104.892V10.464H105.673L105.816 11.267H105.871C106.062 10.959 106.326 10.7298 106.663 10.5795C107 10.4292 107.356 10.354 107.73 10.354ZM116.519 15.6781C116.666 15.6781 116.816 15.6671 116.97 15.6451C117.124 15.6231 117.249 15.5938 117.344 15.5571V16.2941C117.241 16.3454 117.095 16.3876 116.904 16.4206C116.713 16.4536 116.53 16.4701 116.354 16.4701C116.046 16.4701 115.762 16.4169 115.501 16.3106C115.241 16.2043 115.03 16.0191 114.869 15.7551C114.708 15.4911 114.627 15.1208 114.627 14.6441V11.2121H113.791V10.7501L114.638 10.3651L115.023 9.11108H115.595V10.4641H117.3V11.2121H115.595V14.6221C115.595 14.9814 115.681 15.2472 115.853 15.4196C116.026 15.5919 116.248 15.6781 116.519 15.6781ZM119.489 8V10.453C119.489 10.7463 119.471 11.0213 119.434 11.278H119.5C119.691 10.9773 119.949 10.75 120.275 10.596C120.602 10.442 120.956 10.365 121.337 10.365C122.048 10.365 122.585 10.5355 122.948 10.8765C123.311 11.2175 123.493 11.7657 123.493 12.521V16.36H122.536V12.587C122.536 11.641 122.096 11.168 121.216 11.168C120.556 11.168 120.103 11.3532 119.857 11.7235C119.612 12.0938 119.489 12.6237 119.489 13.313V16.36H118.521V8H119.489ZM127.596 10.354C128.095 10.354 128.527 10.464 128.894 10.684C129.261 10.904 129.541 11.2138 129.735 11.6135C129.93 12.0132 130.027 12.4807 130.027 13.016V13.599H125.99C126.005 14.2663 126.175 14.7742 126.501 15.1225C126.828 15.4708 127.284 15.645 127.871 15.645C128.245 15.645 128.577 15.6102 128.866 15.5405C129.156 15.4708 129.455 15.37 129.763 15.238V16.085C129.462 16.217 129.165 16.3142 128.872 16.3765C128.579 16.4388 128.23 16.47 127.827 16.47C127.262 16.47 126.767 16.3563 126.342 16.129C125.917 15.9017 125.585 15.5643 125.346 15.117C125.108 14.6697 124.989 14.116 124.989 13.456C124.989 12.8107 125.097 12.257 125.313 11.795C125.53 11.333 125.834 10.9773 126.226 10.728C126.619 10.4787 127.075 10.354 127.596 10.354ZM127.585 11.146C127.123 11.146 126.758 11.2945 126.49 11.5915C126.223 11.8885 126.063 12.301 126.012 12.829H129.015C129.008 12.3303 128.89 11.9252 128.663 11.6135C128.436 11.3018 128.076 11.146 127.585 11.146Z" fill="white"/>
<path fill-rule="evenodd" clip-rule="evenodd" d="M33.9217 22.2572C33.8891 18.6313 36.8931 16.8673 37.0304 16.7852C35.3292 14.3068 32.6922 13.9682 31.7656 13.9412C29.5509 13.7083 27.4026 15.2653 26.2745 15.2653C25.1238 15.2653 23.3865 13.9637 21.514 14.002C19.1046 14.0391 16.8505 15.433 15.6142 17.5975C13.0628 22.0108 14.9657 28.4965 17.41 32.0638C18.6328 33.811 20.0616 35.7617 21.9318 35.692C23.7614 35.6177 24.4448 34.5276 26.6528 34.5276C28.8404 34.5276 29.4822 35.692 31.3895 35.6492C33.3532 35.6177 34.5894 33.8942 35.7694 32.1302C37.1824 30.1288 37.7499 28.1567 37.7724 28.0555C37.7262 28.0397 33.9589 26.6031 33.9217 22.2572Z" fill="white"/>
<path fill-rule="evenodd" clip-rule="evenodd" d="M30.3191 11.5945C31.3031 10.3649 31.9764 8.69198 31.7895 6.99435C30.3652 7.05735 28.584 7.97873 27.5583 9.18135C26.6508 10.2411 25.8401 11.9781 26.0496 13.6116C27.6495 13.7309 29.2922 12.805 30.3191 11.5945Z" fill="white"/>
<path fill-rule="evenodd" clip-rule="evenodd" d="M56.0202 29.1995L54.7536 25.2901C54.6196 24.8907 54.3685 23.9502 53.9981 22.4697H53.953C53.8056 23.1065 53.568 24.047 53.2415 25.2901L51.9973 29.1995H56.0202ZM60.4001 35.4421H57.8432L56.4425 31.0445H51.574L50.2398 35.4421H47.7504L52.5738 20.4706H55.553L60.4001 35.4421Z" fill="white"/>
<path fill-rule="evenodd" clip-rule="evenodd" d="M70.3592 29.9992C70.3592 28.9485 70.1228 28.0822 69.6477 27.4005C69.1286 26.6895 68.4317 26.334 67.5579 26.334C66.9657 26.334 66.4275 26.532 65.9467 26.9224C65.4648 27.3161 65.1496 27.8302 65.0021 28.467C64.9278 28.764 64.8906 29.007 64.8906 29.1982V30.9982C64.8906 31.7835 65.1316 32.4461 65.6135 32.9872C66.0954 33.5284 66.7214 33.7984 67.4915 33.7984C68.3956 33.7984 69.0993 33.4496 69.6026 32.7544C70.107 32.058 70.3592 31.14 70.3592 29.9992ZM72.8047 29.9114C72.8047 31.7474 72.3082 33.1987 71.3151 34.2641C70.4256 35.2124 69.3211 35.6861 68.0026 35.6861C66.5795 35.6861 65.5571 35.1753 64.9345 34.1538H64.8894V39.8407H62.489V28.2003C62.489 27.0461 62.4586 25.8614 62.4 24.6464H64.5111L64.6451 26.3576H64.6902C65.4907 25.0683 66.7056 24.4248 68.3359 24.4248C69.6105 24.4248 70.6745 24.9277 71.5257 25.9346C72.3791 26.9426 72.8047 28.2678 72.8047 29.9114Z" fill="white"/>
<path fill-rule="evenodd" clip-rule="evenodd" d="M82.7861 29.9992C82.7861 28.9485 82.5486 28.0822 82.0723 27.4005C81.5532 26.6895 80.8597 26.334 79.9848 26.334C79.3903 26.334 78.8544 26.532 78.3725 26.9224C77.8895 27.3161 77.5765 27.8302 77.4278 28.467C77.3558 28.764 77.3175 29.007 77.3175 29.1982V30.9982C77.3175 31.7835 77.5573 32.4461 78.037 32.9872C78.52 33.5272 79.146 33.7984 79.9184 33.7984C80.8225 33.7984 81.5262 33.4496 82.0295 32.7544C82.5328 32.058 82.7861 31.14 82.7861 29.9992ZM85.2317 29.9114C85.2317 31.7474 84.734 33.1987 83.741 34.2641C82.8526 35.2124 81.7481 35.6861 80.4285 35.6861C79.0064 35.6861 77.983 35.1753 77.3626 34.1538H77.3175V39.8407H74.9171V28.2003C74.9171 27.0461 74.8867 25.8614 74.8281 24.6464H76.9392L77.0732 26.3576H77.1183C77.9177 25.0683 79.1325 24.4248 80.764 24.4248C82.0374 24.4248 83.1003 24.9277 83.9549 25.9346C84.805 26.9426 85.2317 28.2678 85.2317 29.9114Z" fill="white"/>
<path fill-rule="evenodd" clip-rule="evenodd" d="M99.1255 31.2441C99.1255 32.5176 98.683 33.5537 97.7946 34.3536C96.8185 35.2277 95.4595 35.6642 93.7132 35.6642C92.1008 35.6642 90.8083 35.3526 89.8298 34.7316L90.386 32.7313C91.4399 33.3692 92.5962 33.6887 93.8561 33.6887C94.7603 33.6887 95.464 33.4828 95.9695 33.0767C96.4728 32.6695 96.7239 32.1216 96.7239 31.441C96.7239 30.8335 96.5167 30.3216 96.1001 29.9065C95.688 29.4902 94.9978 29.1055 94.034 28.7477C91.4095 27.7701 90.1001 26.3391 90.1001 24.4558C90.1001 23.2251 90.5594 22.216 91.4793 21.4296C92.3947 20.6443 93.6186 20.2517 95.1476 20.2517C96.5111 20.2517 97.6438 20.488 98.5479 20.9616L97.9478 22.918C97.1033 22.4578 96.1474 22.2283 95.08 22.2283C94.2356 22.2283 93.5758 22.4365 93.1029 22.8516C92.7032 23.2217 92.5028 23.6728 92.5028 24.2061C92.5028 24.799 92.7313 25.2872 93.1907 25.6731C93.5904 26.0275 94.3166 26.4122 95.3705 26.8273C96.6597 27.346 97.6066 27.9523 98.2157 28.6476C98.8215 29.3417 99.1255 30.208 99.1255 31.2441Z" fill="white"/>
<path fill-rule="evenodd" clip-rule="evenodd" d="M107.062 26.4462H104.416V31.6875C104.416 33.0207 104.882 33.6878 105.818 33.6878C106.246 33.6878 106.601 33.6495 106.883 33.5753L106.949 35.3967C106.476 35.5733 105.854 35.6622 105.082 35.6622C104.134 35.6622 103.394 35.3742 102.86 34.7959C102.326 34.2177 102.058 33.2479 102.058 31.8855V26.4439H100.482V24.6439H102.058V22.6673L104.416 21.9563V24.6439H107.062V26.4462Z" fill="white"/>
<path fill-rule="evenodd" clip-rule="evenodd" d="M116.509 30.0333C116.509 29.0366 116.297 28.1827 115.866 27.4717C115.362 26.6099 114.643 26.1802 113.711 26.1802C112.745 26.1802 112.013 26.6111 111.51 27.4717C111.079 28.1838 110.865 29.0523 110.865 30.0783C110.865 31.0739 111.079 31.9278 111.51 32.6377C112.029 33.5006 112.753 33.9303 113.689 33.9303C114.606 33.9303 115.325 33.4904 115.844 32.6163C116.287 31.8896 116.509 31.0278 116.509 30.0333ZM119.001 29.9557C119.001 31.614 118.524 32.9775 117.576 34.0417C116.582 35.1397 115.264 35.6853 113.619 35.6853C112.032 35.6853 110.77 35.1611 109.829 34.1103C108.888 33.0585 108.417 31.7332 108.417 30.1346C108.417 28.4617 108.901 27.0915 109.873 26.025C110.843 24.9585 112.152 24.4263 113.797 24.4263C115.381 24.4263 116.658 24.9506 117.619 26.0036C118.541 27.024 119.001 28.3413 119.001 29.9557Z" fill="white"/>
<path fill-rule="evenodd" clip-rule="evenodd" d="M126.803 26.7561C126.565 26.7122 126.311 26.6886 126.046 26.6886C125.202 26.6886 124.549 27.0081 124.089 27.646C123.69 28.2085 123.489 28.9195 123.489 29.7779V35.4422H121.09L121.113 28.0454C121.113 26.8022 121.082 25.6694 121.022 24.6479H123.113L123.201 26.7134H123.268C123.521 26.0035 123.919 25.432 124.468 25.0022C125.003 24.6175 125.58 24.4251 126.203 24.4251C126.425 24.4251 126.625 24.4397 126.803 24.469V26.7561Z" fill="white"/>
<path fill-rule="evenodd" clip-rule="evenodd" d="M135.25 28.9116C135.265 28.2006 135.109 27.5863 134.783 27.0666C134.368 26.4006 133.73 26.0676 132.87 26.0676C132.086 26.0676 131.447 26.3927 130.96 27.0452C130.56 27.5638 130.322 28.1848 130.249 28.9105H135.25V28.9116ZM137.539 29.5337C137.539 29.9635 137.51 30.3257 137.451 30.6216H130.249C130.277 31.6881 130.625 32.5026 131.294 33.0651C131.901 33.5691 132.686 33.8211 133.65 33.8211C134.716 33.8211 135.689 33.6512 136.563 33.3103L136.94 34.9753C135.917 35.4208 134.71 35.6413 133.317 35.6413C131.642 35.6413 130.327 35.1497 129.37 34.1653C128.415 33.181 127.937 31.8591 127.937 30.2008C127.937 28.573 128.381 27.2173 129.272 26.1362C130.204 24.982 131.464 24.4048 133.049 24.4048C134.607 24.4048 135.785 24.982 136.586 26.1362C137.22 27.0531 137.539 28.186 137.539 29.5337Z" fill="white"/>
</svg>
