<svg width="152" height="45" viewBox="0 0 152 45" fill="none" xmlns="http://www.w3.org/2000/svg">
<rect width="152" height="45" rx="5.62963" fill="black"/>
<path fill-rule="evenodd" clip-rule="evenodd" d="M50.477 10.8529H53.194V14.7029C52.7687 14.8422 52.3397 14.9449 51.907 15.0109C51.4744 15.0769 50.983 15.1099 50.433 15.1099C49.619 15.1099 48.9334 14.9467 48.376 14.6204C47.8187 14.2941 47.3952 13.8284 47.1055 13.2234C46.8159 12.6184 46.671 11.9016 46.671 11.0729C46.671 10.2589 46.8305 9.54939 47.1495 8.94439C47.4685 8.33939 47.9324 7.87006 48.541 7.53639C49.1497 7.20272 49.883 7.03589 50.741 7.03589C51.181 7.03589 51.5972 7.07622 51.9895 7.15689C52.3819 7.23756 52.7467 7.35122 53.084 7.49789L52.71 8.35589C52.4314 8.23855 52.1179 8.13406 51.7695 8.04239C51.4212 7.95072 51.06 7.90489 50.686 7.90489C49.7473 7.90489 49.0159 8.18905 48.4915 8.75739C47.9672 9.32572 47.705 10.0976 47.705 11.0729C47.705 11.6962 47.8059 12.2481 48.0075 12.7284C48.2092 13.2087 48.5264 13.5827 48.959 13.8504C49.3917 14.1181 49.96 14.2519 50.664 14.2519C51.0087 14.2519 51.302 14.2336 51.544 14.1969C51.786 14.1602 52.006 14.1162 52.204 14.0649V11.7329H50.477V10.8529ZM57.22 8.9939C57.7187 8.9939 58.1514 9.1039 58.518 9.3239C58.8847 9.5439 59.1652 9.85373 59.3595 10.2534C59.5539 10.6531 59.651 11.1206 59.651 11.6559V12.2389H55.614C55.6287 12.9062 55.7992 13.4141 56.1255 13.7624C56.4519 14.1107 56.9084 14.2849 57.495 14.2849C57.869 14.2849 58.2009 14.2501 58.4905 14.1804C58.7802 14.1107 59.079 14.0099 59.387 13.8779V14.7249C59.0864 14.8569 58.7894 14.9541 58.496 15.0164C58.2027 15.0787 57.8544 15.1099 57.451 15.1099C56.8864 15.1099 56.3914 14.9962 55.966 14.7689C55.5407 14.5416 55.2089 14.2042 54.9705 13.7569C54.7322 13.3096 54.613 12.7559 54.613 12.0959C54.613 11.4506 54.7212 10.8969 54.9375 10.4349C55.1539 9.97289 55.4582 9.61723 55.8505 9.3679C56.2429 9.11856 56.6994 8.9939 57.22 8.9939ZM57.209 9.78589C56.747 9.78589 56.3822 9.93439 56.1145 10.2314C55.8468 10.5284 55.6873 10.9409 55.636 11.4689H58.639C58.6317 10.9702 58.5143 10.5651 58.287 10.2534C58.0597 9.94172 57.7003 9.78589 57.209 9.78589ZM63.1161 14.318C63.2627 14.318 63.4131 14.307 63.5671 14.285C63.7211 14.263 63.8457 14.2336 63.9411 14.197V14.934C63.8384 14.9853 63.6917 15.0275 63.5011 15.0605C63.3104 15.0935 63.1271 15.11 62.9511 15.11C62.6431 15.11 62.3589 15.0568 62.0986 14.9505C61.8382 14.8441 61.6274 14.659 61.4661 14.395C61.3047 14.131 61.2241 13.7606 61.2241 13.284V9.85198H60.3881V9.38998L61.2351 9.00498L61.6201 7.75098H62.1921V9.10398H63.8971V9.85198H62.1921V13.262C62.1921 13.6213 62.2782 13.8871 62.4506 14.0595C62.6229 14.2318 62.8447 14.318 63.1161 14.318ZM68.473 6.89301C68.6197 6.89301 68.7498 6.9425 68.8635 7.04151C68.9772 7.14051 69.034 7.29634 69.034 7.50901C69.034 7.72167 68.9772 7.8775 68.8635 7.97651C68.7498 8.07551 68.6197 8.12501 68.473 8.12501C68.3117 8.12501 68.176 8.07551 68.066 7.97651C67.956 7.8775 67.901 7.72167 67.901 7.50901C67.901 7.29634 67.956 7.14051 68.066 7.04151C68.176 6.9425 68.3117 6.89301 68.473 6.89301ZM68.946 9.104V15H67.978V9.104H68.946ZM72.785 14.318C72.9317 14.318 73.082 14.307 73.236 14.285C73.39 14.263 73.5147 14.2336 73.61 14.197V14.934C73.5073 14.9853 73.3607 15.0275 73.17 15.0605C72.9793 15.0935 72.796 15.11 72.62 15.11C72.312 15.11 72.0278 15.0568 71.7675 14.9505C71.5072 14.8441 71.2963 14.659 71.135 14.395C70.9737 14.131 70.893 13.7606 70.893 13.284V9.85198H70.057V9.38998L70.904 9.00498L71.289 7.75098H71.861V9.10398H73.566V9.85198H71.861V13.262C71.861 13.6213 71.9472 13.8871 72.1195 14.0595C72.2918 14.2318 72.5137 14.318 72.785 14.318ZM82.773 12.0409C82.773 13.0162 82.5255 13.7716 82.0305 14.3069C81.5355 14.8422 80.8664 15.1099 80.023 15.1099C79.5023 15.1099 79.0385 14.9907 78.6315 14.7524C78.2245 14.5141 77.9037 14.1657 77.669 13.7074C77.4343 13.2491 77.317 12.6936 77.317 12.0409C77.317 11.0656 77.5608 10.3139 78.0485 9.7859C78.5362 9.25789 79.2053 8.9939 80.056 8.9939C80.584 8.9939 81.0533 9.11306 81.464 9.3514C81.8747 9.58973 82.1955 9.93439 82.4265 10.3854C82.6575 10.8364 82.773 11.3882 82.773 12.0409ZM78.318 12.0411C78.318 12.7378 78.4555 13.2896 78.7305 13.6966C79.0055 14.1036 79.4437 14.3071 80.045 14.3071C80.639 14.3071 81.0753 14.1036 81.354 13.6966C81.6327 13.2896 81.772 12.7378 81.772 12.0411C81.772 11.3444 81.6327 10.7981 81.354 10.4021C81.0753 10.0061 80.6353 9.80811 80.034 9.80811C79.4327 9.80811 78.9963 10.0061 78.725 10.4021C78.4537 10.7981 78.318 11.3444 78.318 12.0411ZM87.14 8.9939C87.844 8.9939 88.3757 9.16623 88.735 9.5109C89.0943 9.85556 89.274 10.4056 89.274 11.1609V14.9999H88.317V11.2269C88.317 10.2809 87.877 9.8079 86.997 9.8079C86.3443 9.8079 85.8933 9.99123 85.644 10.3579C85.3947 10.7246 85.27 11.2526 85.27 11.9419V14.9999H84.302V9.1039H85.083L85.226 9.9069H85.281C85.4717 9.59889 85.7357 9.36973 86.073 9.2194C86.4103 9.06906 86.766 8.9939 87.14 8.9939Z" fill="white"/>
<path fill-rule="evenodd" clip-rule="evenodd" d="M5.62963 0H146.37C149.48 0 152 2.5184 152 5.625V39.375C152 42.4816 149.48 45 146.37 45H5.62963C2.52047 45 0 42.4816 0 39.375V5.625C0 2.5184 2.52047 0 5.62963 0ZM151.099 5.6249C151.099 3.01536 148.982 0.899902 146.37 0.899902H5.62965C3.01795 0.899902 0.900757 3.01536 0.900757 5.6249V39.3749C0.900757 41.9844 3.01795 44.0999 5.62965 44.0999H146.37C148.982 44.0999 151.099 41.9844 151.099 39.3749V5.6249Z" fill="#A6A6A6"/>
<path fill-rule="evenodd" clip-rule="evenodd" d="M53.7517 25.9425V27.9675H58.6157C58.5394 28.9213 58.1426 29.8213 57.4898 30.5213C56.5057 31.5228 55.1439 32.0621 53.7404 32.0063C50.7556 32.0063 48.336 29.5886 48.336 26.6063C48.336 23.6239 50.7556 21.2063 53.7404 21.2063C55.1116 21.1839 56.4356 21.7058 57.4222 22.6575L58.8521 21.2288C57.5066 19.8673 55.6666 19.1084 53.7517 19.125C51.0258 19.019 48.4603 20.4116 47.0658 22.7543C45.6713 25.097 45.6713 28.0143 47.0658 30.3569C48.4603 32.6996 51.0258 34.0922 53.7517 33.9863C55.7015 34.0743 57.5942 33.3154 58.9422 31.905C60.1218 30.61 60.7516 28.9077 60.6987 27.1575C60.7023 26.7311 60.6646 26.3054 60.5861 25.8863L53.7517 25.9425ZM66.2383 24.4686C63.597 24.4749 61.4602 26.6182 61.4644 29.2574C61.4685 31.8965 63.612 34.0332 66.2533 34.0311C68.8946 34.0291 71.0347 31.889 71.0347 29.2499C71.0533 27.9723 70.552 26.7419 69.6456 25.8406C68.7393 24.9392 67.5056 24.4441 66.227 24.4686H66.2383ZM71.9579 29.2648C71.9496 26.6272 74.0807 24.4811 76.7206 24.4686C77.9991 24.4441 79.2328 24.9392 80.1392 25.8406C81.0455 26.7419 81.5468 27.9723 81.5283 29.2499C81.5282 31.8876 79.3904 34.027 76.7505 34.0311C74.1107 34.0352 71.9662 31.9025 71.9579 29.2648ZM73.8967 30.5082C74.4109 31.5836 75.5307 32.2356 76.7205 32.1525C77.4673 32.1352 78.1755 31.8172 78.6843 31.2707C79.1931 30.7242 79.4594 29.9955 79.4227 29.25C79.4198 28.0582 78.6881 26.9893 77.5776 26.5546C76.467 26.1198 75.2033 26.4076 74.3909 27.2802C73.5786 28.1528 73.3826 29.4329 73.8967 30.5082ZM63.4069 30.5169C63.9247 31.5916 65.0478 32.2403 66.2382 32.1525H66.227C66.9738 32.1352 67.682 31.8172 68.1908 31.2707C68.6996 30.7242 68.9659 29.9955 68.9292 29.25C68.926 28.0573 68.1928 26.988 67.0808 26.5542C65.9689 26.1204 64.7045 26.4104 63.8933 27.2854C63.0821 28.1604 62.8892 29.4422 63.4069 30.5169ZM100.669 24.4688C102.536 24.5374 104.166 25.7504 104.767 27.5175L105.004 28.0238L98.5973 30.6675C98.9989 31.5812 99.9187 32.1568 100.917 32.1188C101.88 32.1212 102.774 31.6169 103.27 30.7913L104.902 31.9163C104.014 33.2454 102.516 34.0399 100.917 34.0313C99.6451 34.0499 98.4205 33.551 97.5244 32.6493C96.6283 31.7475 96.1377 30.5205 96.1653 29.25C96.0875 28.0086 96.5274 26.7904 97.3806 25.8846C98.2338 24.9788 99.4241 24.4663 100.669 24.4688ZM98.2371 29.115C98.191 28.4121 98.43 27.7202 98.9002 27.1953C99.3704 26.6704 100.032 26.3567 100.737 26.325C101.479 26.2761 102.179 26.6745 102.516 27.3375L98.2371 29.115ZM95.1408 33.75H93.0353V19.6875H95.1408V33.75ZM89.5899 25.5376H89.5111C88.8693 24.8206 87.9518 24.4113 86.9891 24.4126C84.4334 24.5364 82.4249 26.6429 82.4249 29.1995C82.4249 31.7561 84.4334 33.8625 86.9891 33.9864C87.9549 34.0026 88.8784 33.5907 89.5111 32.8614H89.5787V33.5476C89.5787 35.3814 88.5991 36.3601 87.0228 36.3601C85.949 36.335 84.997 35.6638 84.6133 34.6614L82.7781 35.4263C83.4848 37.144 85.1642 38.2612 87.0228 38.2501C89.4886 38.2501 91.5265 36.7989 91.5265 33.2664V24.7501H89.5899V25.5376ZM87.1769 32.1521L87.1804 32.1524H87.1691L87.1769 32.1521ZM89.0742 31.2499C88.591 31.7963 87.9058 32.122 87.1769 32.1521C85.6731 32.0179 84.5203 30.7588 84.5203 29.2499C84.5203 27.7398 85.6749 26.48 87.1804 26.3474C87.9079 26.3847 88.5895 26.7139 89.0707 27.2603C89.5518 27.8068 89.7918 28.5242 89.7363 29.2499C89.7983 29.979 89.5591 30.7016 89.0742 31.2499ZM114.631 19.6875H109.598V33.75H111.703V28.4175H114.642C116.277 28.5349 117.842 27.7296 118.695 26.3306C119.549 24.9316 119.549 23.1734 118.695 21.7744C117.842 20.3754 116.277 19.5701 114.642 19.6875H114.631ZM111.692 26.4375H114.631L114.676 26.4712C116.009 26.4712 117.091 25.3908 117.091 24.0581C117.091 22.7254 116.009 21.645 114.676 21.645H111.692V26.4375ZM127.612 24.4125C126.046 24.319 124.573 25.163 123.863 26.5613L125.732 27.3375C126.109 26.6441 126.859 26.2382 127.646 26.3025C128.186 26.2395 128.729 26.3958 129.152 26.7364C129.576 27.077 129.844 27.5733 129.898 28.1138V28.26C129.222 27.9023 128.468 27.7168 127.702 27.72C125.687 27.72 123.649 28.845 123.649 30.8813C123.689 31.7584 124.083 32.5821 124.74 33.1648C125.398 33.7475 126.263 34.0397 127.14 33.975C128.22 34.0525 129.256 33.5348 129.842 32.625H129.909V33.75H131.936V28.3388C131.936 25.875 130.067 24.4463 127.669 24.4463L127.612 24.4125ZM125.71 30.9263C125.71 31.77 126.667 32.1188 127.353 32.1188L127.41 32.1525C128.678 32.1216 129.73 31.1618 129.876 29.9025C129.291 29.5767 128.63 29.4135 127.961 29.43C126.903 29.43 125.71 29.8013 125.71 30.9263ZM139.322 24.75L136.913 30.8475H136.845L134.345 24.75H132.094L135.843 33.2775L133.704 38.0138H135.899L141.664 24.75H139.322ZM122.501 33.75H120.395V19.6875H122.501V33.75Z" fill="white"/>
<path d="M11.7546 8.48256C11.3876 8.92256 11.2024 9.48583 11.2367 10.0576V34.9426C11.2024 35.5143 11.3876 36.0776 11.7546 36.5176L11.8334 36.5963L25.7837 22.6688V22.3426L11.8334 8.40381L11.7546 8.48256Z" fill="url(#paint0_linear)"/>
<path d="M30.4 27.3151L25.7837 22.6688V22.3426L30.4 17.6851L30.5013 17.7413L36.0296 20.8801C37.6059 21.7688 37.6059 23.2313 36.0296 24.1313L30.5238 27.2588L30.4 27.3151Z" fill="url(#paint1_linear)"/>
<path d="M30.5351 27.2475L25.7837 22.5L11.7546 36.5175C12.4175 37.0997 13.4012 37.1281 14.0966 36.585L30.5463 27.2475" fill="url(#paint2_linear)"/>
<path d="M30.5351 17.7526L14.0853 8.41512C13.39 7.87205 12.4063 7.90041 11.7434 8.48262L25.7837 22.5001L30.5351 17.7526Z" fill="url(#paint3_linear)"/>
<path opacity="0.2" d="M30.4 27.1462L14.0853 36.4275C13.4177 36.9262 12.5011 36.9262 11.8335 36.4275L11.7546 36.5062L11.8335 36.585C12.4998 37.0875 13.4189 37.0875 14.0853 36.585L30.5351 27.2475L30.4 27.1462Z" fill="black"/>
<path opacity="0.12" fill-rule="evenodd" clip-rule="evenodd" d="M30.3999 27.1462L36.0295 23.9625C36.6113 23.6756 37.0271 23.1354 37.1555 22.5C37.0974 23.2024 36.668 23.8203 36.0295 24.12L30.5012 27.2475L30.3999 27.1462ZM11.2342 35.0039C11.2528 35.4989 11.4346 35.9763 11.7546 36.3599L11.8334 36.4499L11.7546 36.5287C11.3984 36.1016 11.2134 35.5583 11.2342 35.0039ZM11.2342 35.0039C11.2349 34.9872 11.2357 34.9704 11.2367 34.9537V34.7849C11.2323 34.8581 11.2315 34.9312 11.2342 35.0039Z" fill="black"/>
<path opacity="0.25" d="M14.0853 8.57249L36.0296 21.0375C36.6114 21.3244 37.0272 21.8645 37.1555 22.5C37.0975 21.7975 36.6681 21.1797 36.0296 20.88L14.0853 8.41499C12.509 7.52624 11.2255 8.26874 11.2255 10.0687V10.2375C11.2592 8.42624 12.5203 7.68374 14.0853 8.57249Z" fill="white"/>
<defs>
<linearGradient id="paint0_linear" x1="19.6735" y1="-8.50378" x2="-2.66177" y2="-2.55877" gradientUnits="userSpaceOnUse">
<stop stop-color="#00A0FF"/>
<stop offset="0.01" stop-color="#00A1FF"/>
<stop offset="0.26" stop-color="#00BEFF"/>
<stop offset="0.51" stop-color="#00D2FF"/>
<stop offset="0.76" stop-color="#00DFFF"/>
<stop offset="1" stop-color="#00E3FF"/>
</linearGradient>
<linearGradient id="paint1_linear" x1="38.0901" y1="11.0247" x2="10.8539" y2="11.0247" gradientUnits="userSpaceOnUse">
<stop stop-color="#FFE000"/>
<stop offset="0.41" stop-color="#FFBD00"/>
<stop offset="0.78" stop-color="#FFA500"/>
<stop offset="1" stop-color="#FF9C00"/>
</linearGradient>
<linearGradient id="paint2_linear" x1="11.3424" y1="15.2185" x2="-6.57902" y2="45.3888" gradientUnits="userSpaceOnUse">
<stop stop-color="#FF3A44"/>
<stop offset="1" stop-color="#C31162"/>
</linearGradient>
<linearGradient id="paint3_linear" x1="0.799429" y1="4.60812" x2="8.79873" y2="18.0807" gradientUnits="userSpaceOnUse">
<stop stop-color="#32A071"/>
<stop offset="0.07" stop-color="#2DA771"/>
<stop offset="0.48" stop-color="#15CF74"/>
<stop offset="0.8" stop-color="#06E775"/>
<stop offset="1" stop-color="#00F076"/>
</linearGradient>
</defs>
</svg>
